<?xml version="1.0" standalone="no"?>
<!DOCTYPE svg PUBLIC "-//W3C//DTD SVG 20010904//EN"
 "http://www.w3.org/TR/2001/REC-SVG-20010904/DTD/svg10.dtd">
<svg version="1.0" xmlns="http://www.w3.org/2000/svg"
 width="1024.000000pt" height="1024.000000pt" viewBox="0 0 1024.000000 1024.000000"
 preserveAspectRatio="xMidYMid meet">

<g transform="translate(0.000000,1024.000000) scale(0.100000,-0.100000)"
fill="#000000" stroke="none">
<path d="M3157 7170 c-84 -30 -187 -95 -286 -181 -132 -115 -217 -239 -265
-387 -21 -62 -32 -67 -156 -66 -160 2 -253 59 -367 224 -108 158 -167 200
-289 208 -180 12 -357 -58 -411 -162 -15 -28 -86 -225 -143 -396 -12 -36 -29
-85 -37 -110 -8 -25 -42 -121 -75 -215 -97 -279 -132 -413 -141 -551 -3 -41
-12 -61 -45 -105 -53 -70 -72 -124 -79 -222 -5 -70 -10 -85 -46 -140 -182
-281 -180 -478 7 -675 85 -90 175 -152 221 -152 24 0 37 -7 50 -26 21 -32 127
-81 279 -129 100 -32 119 -35 153 -26 26 8 39 8 42 0 10 -30 54 -50 192 -84
111 -28 164 -36 201 -33 45 5 53 2 77 -22 22 -23 55 -35 221 -75 213 -52 409
-111 425 -127 7 -7 2 -9 -15 -5 -14 4 -131 10 -260 13 -449 12 -961 -31 -1134
-97 -65 -24 -86 -45 -86 -86 0 -29 6 -37 46 -63 80 -50 237 -93 535 -145 554
-96 1511 -181 2429 -215 357 -13 1259 -13 1515 0 542 28 914 81 1090 154 48
20 49 58 3 86 -38 24 -145 58 -215 69 l-48 8 35 13 c85 32 232 115 282 160 98
87 145 209 135 354 -6 87 -22 137 -61 183 -14 16 -34 53 -45 81 -29 77 -73
141 -144 209 -115 111 -219 165 -642 339 -309 126 -720 323 -743 355 -7 10
-71 57 -141 103 -124 81 -128 86 -135 125 -9 57 -69 115 -136 131 -35 8 -68
28 -117 69 -66 55 -68 59 -73 110 -8 71 -53 115 -128 126 -48 6 -54 11 -107
75 -30 38 -55 79 -55 91 0 58 -68 115 -151 126 -31 5 -45 15 -74 51 -23 30
-35 56 -35 77 0 48 -38 96 -100 127 -30 15 -74 49 -97 75 -41 45 -43 50 -43
111 0 61 -2 66 -38 102 -41 41 -106 65 -150 56 -25 -6 -30 0 -71 76 -116 218
-212 344 -299 395 -62 37 -172 42 -255 13z m167 -114 c41 -17 99 -67 148 -129
38 -49 49 -74 26 -61 -8 4 -10 3 -5 -2 5 -5 13 -9 19 -9 13 0 139 -208 130
-215 -7 -5 -9 -15 -15 -67 -1 -12 -11 -29 -22 -38 l-20 -17 20 6 c18 6 19 5 3
-7 -11 -9 -59 -17 -120 -20 -57 -4 -130 -14 -163 -22 -77 -18 -75 -18 -75 5 0
10 -9 24 -20 30 -11 6 -42 30 -68 53 -27 24 -63 49 -80 56 -28 12 -31 16 -20
30 11 14 11 14 -3 4 -12 -10 -29 -10 -80 1 -35 7 -57 15 -49 18 11 3 11 6 -3
11 -10 4 -16 2 -14 -4 1 -7 -23 -13 -58 -16 -33 -2 -68 -9 -78 -15 -30 -16
-29 -5 9 58 43 71 73 106 87 97 6 -4 7 -1 2 6 -4 8 4 24 21 42 20 21 33 27 51
23 14 -4 23 -2 23 5 0 6 4 11 10 11 5 0 6 -8 3 -17 -6 -16 -5 -16 10 -4 9 7
17 21 16 30 0 10 -2 12 -6 3 -2 -6 -9 -9 -14 -6 -6 3 -17 0 -25 -7 -8 -6 -17
-9 -20 -6 -10 10 141 120 211 153 76 36 118 41 169 20z m544 -479 c6 -5 12
-21 12 -34 0 -27 -38 -103 -51 -103 -14 0 -109 22 -109 25 0 8 73 112 87 122
15 12 37 8 61 -10z m-801 -128 c25 -13 44 -28 42 -34 -5 -13 -29 -8 -60 15
-15 10 -45 21 -67 23 -23 3 -46 9 -53 13 -9 5 -10 2 -6 -11 6 -15 3 -17 -25
-13 -23 4 -36 0 -45 -11 -6 -9 -17 -16 -25 -17 -7 0 -26 -2 -43 -3 -21 -1 -26
-4 -16 -10 8 -5 10 -14 6 -22 -5 -8 1 -6 12 4 11 9 24 17 29 17 17 -1 -41 -40
-59 -40 -10 0 -16 -4 -12 -9 3 -5 1 -12 -4 -15 -22 -14 -23 18 -1 36 12 10 21
21 18 24 -3 3 -17 -9 -32 -26 -14 -17 -33 -30 -42 -28 -11 2 3 17 41 45 31 24
62 40 68 36 6 -3 7 -1 3 6 -5 7 8 18 36 31 59 28 170 22 235 -11z m688 -73
c44 -14 102 -40 129 -57 l50 -31 -26 -14 c-22 -11 -37 -11 -99 3 -128 28 -357
18 -504 -22 -27 -8 -84 -25 -125 -39 -70 -23 -137 -25 -124 -5 3 5 -2 6 -10 3
-12 -5 -16 0 -16 20 0 32 42 61 160 110 130 53 204 66 355 62 108 -2 143 -7
210 -30z m-755 -31 c-13 -14 -28 -25 -34 -25 -6 0 3 11 19 25 39 31 45 32 15
0z m-52 -61 c-7 -15 -14 -21 -16 -15 -2 7 2 18 8 26 18 22 21 18 8 -11z m1157
-45 c20 -20 20 -20 -4 -40 -13 -10 -20 -19 -15 -19 10 0 -14 -25 -24 -25 -15
-1 -53 -27 -48 -32 3 -4 16 2 27 13 22 19 22 19 10 -4 -13 -25 -20 -25 -114
-1 -31 8 -36 13 -28 27 12 21 79 86 106 101 25 14 64 5 90 -20z m-1168 -51
c-3 -8 -6 -5 -6 6 -1 11 2 17 5 13 3 -3 4 -12 1 -19z m692 8 c-2 -2 -20 -6
-39 -10 -25 -4 -31 -3 -20 4 14 9 69 15 59 6z m30 -34 c-7 -11 -28 -22 -47
-25 -28 -5 -38 -2 -57 21 -13 15 -21 29 -19 31 2 2 13 -8 25 -22 16 -22 26
-26 47 -21 31 7 54 32 45 48 -4 7 -2 7 6 0 10 -9 10 -16 0 -32z m-679 -27 c13
-14 21 -25 18 -25 -2 0 -15 11 -28 25 -13 14 -21 25 -18 25 2 0 15 -11 28 -25z
m97 -41 c-3 -3 -12 -4 -19 -1 -8 3 -5 6 6 6 11 1 17 -2 13 -5z m46 -1 c-7 -2
-19 -2 -25 0 -7 3 -2 5 12 5 14 0 19 -2 13 -5z m1032 -13 c3 -6 -1 -7 -9 -4
-18 7 -21 14 -7 14 6 0 13 -4 16 -10z m-228 -24 c95 -21 194 -52 221 -72 l24
-16 -23 -22 c-22 -21 -26 -21 -74 -8 -31 9 -105 14 -195 14 -156 1 -202 -7
-365 -61 -62 -20 -93 -26 -102 -19 -7 5 -18 6 -24 2 -8 -4 -9 -3 -5 4 4 7 1
12 -8 12 -26 0 -18 26 15 54 43 36 164 93 235 110 78 19 216 20 301 2z m-551
-11 c-11 -8 -25 -15 -30 -15 -6 1 0 7 14 15 32 19 40 18 16 0z m-1915 -22 c13
-16 12 -17 -3 -4 -10 7 -18 15 -18 17 0 8 8 3 21 -13z m1356 -15 c-3 -8 -6 -5
-6 6 -1 11 2 17 5 13 3 -3 4 -12 1 -19z m110 -10 c-3 -8 -6 -5 -6 6 -1 11 2
17 5 13 3 -3 4 -12 1 -19z m1432 -5 l22 -18 -26 -54 c-15 -29 -36 -67 -48 -83
-21 -28 -24 -29 -82 -23 -33 4 -61 8 -63 10 -2 2 17 32 44 67 93 124 111 135
153 101z m-2843 -24 c20 -22 23 -28 8 -19 -18 11 -50 50 -41 50 2 0 16 -14 33
-31z m1782 -4 c-6 -14 -13 -23 -15 -21 -5 5 15 46 22 46 3 0 -1 -11 -7 -25z
m-398 1 c0 -2 -8 -10 -17 -17 -16 -13 -17 -12 -4 4 13 16 21 21 21 13z m10
-45 c-29 -42 -36 -39 -8 3 13 19 24 33 26 31 3 -2 -6 -18 -18 -34z m373 -44
c3 -22 2 -35 -4 -32 -5 4 -9 22 -9 42 0 45 5 40 13 -10z m-523 -10 l-34 -32
30 36 c16 20 31 34 33 32 3 -2 -10 -18 -29 -36z m-1109 -34 l24 -26 -27 19
c-15 10 -28 22 -28 27 0 12 5 8 31 -20z m2243 12 c-8 -20 21 -35 55 -29 38 8
40 21 4 27 -27 5 -27 5 2 3 41 -2 39 -27 -4 -38 -28 -8 -37 -6 -57 13 -27 26
-30 36 -10 36 8 0 12 -6 10 -12z m-1034 1 c0 -3 -4 -8 -10 -11 -5 -3 -10 -1
-10 4 0 6 5 11 10 11 6 0 10 -2 10 -4z m-50 -42 c0 -3 -7 -1 -15 6 -8 7 -15
17 -15 22 0 5 7 3 15 -6 8 -8 15 -18 15 -22z m-90 21 c0 -2 -10 -9 -22 -15
-22 -11 -22 -10 -4 4 21 17 26 19 26 11z m591 -12 c13 -16 12 -17 -3 -4 -10 7
-18 15 -18 17 0 8 8 3 21 -13z m1138 -14 c23 -31 23 -31 2 -25 -12 3 -30 9
-41 12 -17 4 -18 8 -7 25 16 25 19 24 46 -12z m-2741 -34 c-3 -3 -9 2 -12 12
-6 14 -5 15 5 6 7 -7 10 -15 7 -18z m2691 -55 c94 -22 106 -33 72 -64 -18 -16
-22 -16 -50 -2 -16 9 -44 16 -61 16 -22 0 -29 4 -24 13 6 8 3 8 -9 -2 -12 -10
-24 -11 -45 -3 -16 5 -35 6 -42 2 -7 -4 -23 -7 -36 -5 -13 1 -24 -2 -24 -7 0
-5 17 -9 38 -8 20 1 71 1 112 -1 43 -1 -3 -5 -105 -9 -170 -7 -186 -9 -293
-44 -63 -20 -123 -36 -135 -35 -12 1 3 7 33 15 30 7 56 18 58 24 2 5 7 8 12 5
4 -3 33 4 63 14 30 11 58 17 61 14 3 -4 6 -1 6 5 0 16 -20 15 -64 -3 -20 -8
-36 -12 -36 -9 0 4 -6 2 -12 -4 -7 -6 -17 -11 -23 -12 -17 -4 -29 -7 -73 -21
-46 -14 -77 -5 -77 22 0 22 149 89 244 110 110 24 279 20 410 -11z m-664 10
c-3 -5 -16 -15 -28 -21 -19 -9 -19 -8 3 10 28 23 34 26 25 11z m939 -22 c10
-14 13 -31 9 -47 -8 -34 -60 -123 -81 -138 -16 -13 -142 -19 -142 -7 0 9 102
156 129 187 30 33 64 35 85 5z m-2889 -8 c10 -11 16 -20 13 -20 -3 0 -13 9
-23 20 -10 11 -16 20 -13 20 3 0 13 -9 23 -20z m-104 -7 c13 -16 12 -17 -3 -4
-10 7 -18 15 -18 17 0 8 8 3 21 -13z m844 -3 c-3 -5 -12 -10 -18 -10 -7 0 -6
4 3 10 19 12 23 12 15 0z m-125 -4 c0 -2 -7 -7 -16 -10 -8 -3 -12 -2 -9 4 6
10 25 14 25 6z m1290 0 c0 -2 -8 -10 -17 -17 -16 -13 -17 -12 -4 4 13 16 21
21 21 13z m-1905 -56 c10 -11 16 -20 13 -20 -3 0 -13 9 -23 20 -10 11 -16 20
-13 20 3 0 13 -9 23 -20z m510 -20 c-3 -5 -14 -10 -23 -9 -14 0 -13 2 3 9 27
11 27 11 20 0z m-534 -17 c13 -16 12 -17 -3 -4 -17 13 -22 21 -14 21 2 0 10
-8 17 -17z m384 7 c-11 -5 -27 -9 -35 -9 -9 0 -8 4 5 9 11 5 27 9 35 9 9 0 8
-4 -5 -9z m1129 -5 c-4 -9 0 -15 9 -15 9 0 18 -4 21 -9 3 -4 -6 -6 -19 -3 -24
4 -33 21 -18 35 10 11 13 8 7 -8z m-247 -1 c-3 -3 -12 -4 -19 -1 -8 3 -5 6 6
6 11 1 17 -2 13 -5z m-800 -26 c-3 -8 -6 -5 -6 6 -1 11 2 17 5 13 3 -3 4 -12
1 -19z m1426 -8 c3 -11 2 -18 -3 -15 -4 3 -10 14 -13 25 -3 11 -2 18 3 15 4
-3 10 -14 13 -25z m-1343 10 c-8 -5 -19 -10 -25 -10 -5 0 -3 5 5 10 8 5 20 10
25 10 6 0 3 -5 -5 -10z m793 3 c-7 -2 -19 -2 -25 0 -7 3 -2 5 12 5 14 0 19 -2
13 -5z m302 -45 c6 -5 -8 -2 -30 7 -22 9 -44 21 -50 26 -5 6 8 3 30 -6 22 -9
45 -21 50 -27z m24 16 c14 -12 -19 -1 -35 12 -18 14 -18 14 6 3 14 -6 27 -13
29 -15z m-439 -4 c-8 -5 -19 -10 -25 -10 -5 0 -3 5 5 10 8 5 20 10 25 10 6 0
3 -5 -5 -10z m1314 -9 c12 -13 14 -21 6 -26 -6 -4 -14 -4 -17 -1 -4 3 -1 6 7
6 10 0 10 3 -1 16 -8 9 -25 14 -45 12 -18 -1 -36 1 -40 5 -4 4 11 7 33 7 27 0
46 -6 57 -19z m-2446 -16 c-3 -3 -9 2 -12 12 -6 14 -5 15 5 6 7 -7 10 -15 7
-18z m1903 -35 c15 0 30 -4 33 -9 7 -11 -62 2 -90 17 -11 6 -27 18 -35 28 -7
9 4 5 25 -10 21 -14 51 -26 67 -26z m-1827 24 c3 -8 2 -12 -4 -9 -6 3 -10 10
-10 16 0 14 7 11 14 -7z m2316 7 c0 -5 8 -12 18 -14 14 -4 14 -5 1 -6 -9 0
-22 6 -29 14 -9 10 -9 15 -1 15 6 0 11 -4 11 -9z m475 -1 c3 -6 -1 -7 -9 -4
-18 7 -21 14 -7 14 6 0 13 -4 16 -10z m-1218 -14 c4 -3 1 -6 -6 -6 -7 0 -9 -5
-5 -12 4 -7 3 -8 -5 -4 -6 4 -8 12 -5 18 5 7 2 9 -8 6 -8 -4 -21 -2 -29 3 -9
6 -3 8 19 5 18 -2 36 -6 39 -10z m338 -25 c-9 -8 -36 -10 -30 -2 2 4 11 8 20
8 8 0 13 -3 10 -6z m-606 -7 c17 -4 31 -10 31 -14 0 -8 -34 -6 -72 5 -16 4
-36 4 -45 0 -30 -13 -53 -15 -53 -6 0 17 84 26 139 15z m-449 -19 c-33 -19
-49 -19 -24 0 10 8 26 14 34 14 9 0 4 -6 -10 -14z m270 -10 c-30 -11 -34 -20
-7 -16 4 0 7 -5 7 -12 0 -15 -37 -20 -45 -6 -4 5 2 6 12 2 14 -5 15 -3 7 7
-14 14 -57 4 -48 -12 4 -6 2 -8 -3 -5 -13 8 -81 -18 -105 -41 -10 -8 -18 -12
-18 -8 0 4 -10 1 -22 -5 l-21 -11 24 -13 c23 -13 22 -13 -15 -10 -40 4 -96
-17 -96 -35 0 -10 89 -79 103 -80 5 0 5 5 1 12 -5 7 -3 8 6 3 7 -4 16 -2 21 6
7 11 9 10 9 -5 0 -16 2 -17 18 -5 15 13 16 12 3 -4 -9 -11 -21 -15 -35 -12
-18 5 -19 5 -4 -5 10 -6 20 -10 23 -10 3 1 15 -9 25 -22 11 -13 19 -20 20 -16
0 4 12 -4 26 -17 28 -26 50 -33 38 -12 -5 8 -2 7 9 -2 25 -20 29 -10 11 24 -9
19 -10 25 -3 18 19 -19 40 -16 32 5 -6 14 -4 15 9 4 13 -10 17 -10 22 3 8 21
-36 39 -47 19 -4 -8 -12 -14 -18 -14 -5 0 -1 10 10 21 l20 21 35 -21 c22 -14
37 -18 41 -11 3 5 -1 10 -9 10 -8 0 -17 4 -20 9 -4 5 4 7 16 4 19 -4 20 -3 8
6 -13 10 -13 11 0 11 18 1 60 34 60 48 0 15 43 8 48 -8 4 -12 2 -12 -8 -3 -10
9 -20 6 -47 -14 -35 -27 -39 -47 -19 -94 4 -10 2 -19 -7 -22 -10 -4 -13 0 -10
13 3 10 0 21 -6 24 -6 4 -12 0 -12 -8 -2 -25 -4 -30 -13 -45 -7 -11 -5 -13 6
-9 16 7 19 -25 3 -39 -4 -5 -5 -3 -2 4 4 6 -4 20 -17 31 -19 14 -22 22 -14 30
7 7 9 14 6 17 -3 3 -13 -1 -22 -10 -9 -9 -16 -13 -16 -9 0 4 -3 5 -6 2 -3 -4
0 -16 6 -28 11 -20 10 -21 -12 -15 -16 5 -12 0 12 -16 19 -12 43 -22 53 -23 9
-1 17 -5 16 -10 -1 -10 69 -56 85 -56 5 0 3 7 -4 15 -10 12 -10 15 4 15 29 0
31 -1 38 -21 5 -12 4 -18 -2 -14 -6 3 -10 13 -10 22 0 19 -13 9 -16 -12 -1 -9
11 -22 27 -30 15 -9 45 -26 65 -40 20 -14 41 -22 47 -18 5 3 7 1 4 -4 -4 -6 0
-13 8 -16 8 -4 16 2 20 13 3 10 13 24 23 32 15 12 16 11 3 -5 -8 -9 -11 -20
-8 -24 4 -3 2 -12 -3 -18 -8 -9 -6 -14 5 -19 9 -3 13 -2 10 4 -3 6 -1 10 4 10
6 0 11 -7 11 -16 0 -9 5 -12 12 -8 7 5 8 3 3 -6 -6 -9 -2 -10 16 -5 13 4 21 4
17 0 -9 -9 9 -35 24 -35 5 0 6 6 2 13 -6 9 -4 9 8 -1 10 -8 19 -9 22 -3 4 5
-4 17 -16 25 -12 9 -18 16 -14 16 5 0 17 -6 25 -14 14 -13 19 -12 39 4 21 18
22 20 5 28 -23 13 -33 12 -57 0 -13 -7 -16 -7 -12 1 4 5 1 20 -6 31 -11 18
-10 23 11 39 24 18 44 21 57 9 3 -4 -4 -11 -15 -17 -17 -10 -20 -9 -14 5 5 14
3 14 -16 3 -24 -15 -27 -34 -8 -46 29 -18 44 -10 37 22 -1 5 1 7 5 3 4 -3 5
-8 3 -11 -1 -3 6 -14 16 -26 15 -16 22 -18 33 -10 19 17 16 27 -14 43 -36 20
-21 21 16 1 27 -13 30 -13 56 15 42 43 43 126 2 116 -7 -1 -9 -1 -4 1 4 3 7
13 7 23 0 10 4 20 10 22 6 2 4 14 -5 31 -15 29 -15 29 -15 52 0 8 -7 15 -15
15 -8 0 -15 5 -15 10 0 6 -5 10 -11 10 -5 0 -7 -5 -3 -11 4 -8 0 -8 -15 0 -11
7 -21 16 -21 22 0 6 -4 7 -10 4 -5 -3 -10 1 -10 10 0 10 -5 13 -12 9 -7 -4 -8
-3 -4 4 5 9 12 8 27 -1 16 -10 21 -9 29 3 11 18 0 37 -12 19 -7 -11 -8 -9 -6
5 2 10 -3 21 -11 24 -8 3 -11 0 -7 -6 3 -6 1 -14 -5 -18 -7 -4 -10 -3 -7 2 9
14 -11 56 -22 49 -5 -3 -10 -11 -10 -16 0 -6 4 -8 8 -5 4 2 8 -4 8 -15 0 -30
-28 2 -29 35 -1 14 -5 26 -8 26 -3 0 -26 13 -50 30 -51 34 -56 36 -56 15 0 -9
6 -14 14 -11 10 4 11 1 3 -14 -13 -25 -13 -33 2 -24 7 4 8 3 4 -4 -4 -7 -2
-12 3 -12 6 0 11 7 11 16 0 8 5 12 10 9 15 -9 -9 -37 -26 -31 -6 2 -15 2 -18
-2 -11 -10 -37 -11 -30 -1 3 5 9 7 14 4 4 -2 10 7 13 20 2 14 1 28 -4 30 -4 3
-6 14 -4 25 4 22 -10 36 -20 20 -10 -16 -28 -12 -21 5 3 10 -1 15 -14 15 -10
0 -22 5 -25 10 -20 33 85 -16 204 -95 132 -87 247 -195 262 -244 9 -32 8 -44
-7 -76 -17 -37 -104 -131 -174 -190 -20 -17 -45 -38 -56 -48 -20 -17 -26 -15
-205 91 -290 171 -569 351 -597 385 -12 14 5 25 140 90 84 41 167 79 183 85
44 15 66 13 25 -3z m140 -6 c0 -5 5 -7 10 -4 6 4 17 1 25 -5 12 -10 15 -10 15
1 0 7 7 3 16 -9 8 -12 20 -20 25 -17 5 3 6 -1 3 -10 -4 -9 -13 -14 -20 -11 -8
3 -14 1 -14 -4 0 -15 -17 -12 -23 4 -3 8 1 13 8 12 8 0 14 4 14 9 1 6 -5 10
-11 11 -18 0 -39 -17 -32 -27 10 -16 -6 -9 -26 11 -11 11 -16 20 -11 20 6 0
13 -5 16 -10 7 -12 25 -4 25 11 0 6 -4 8 -9 5 -5 -3 -14 1 -21 9 -9 10 -9 15
-1 15 6 0 11 -5 11 -11z m1464 1 c33 -5 64 -14 68 -18 20 -20 -57 -49 -162
-61 -114 -13 -284 -52 -330 -76 -16 -8 -42 -15 -57 -14 -30 1 -26 3 20 13 15
4 27 11 27 17 0 6 -6 6 -17 1 -10 -5 -33 -12 -51 -15 -37 -7 -53 12 -33 37 18
21 171 94 232 110 63 17 218 20 303 6z m-1564 -4 c0 -2 -7 -6 -15 -10 -8 -3
-15 -1 -15 4 0 6 7 10 15 10 8 0 15 -2 15 -4z m35 -6 c-3 -5 -10 -10 -16 -10
-5 0 -9 5 -9 10 0 6 7 10 16 10 8 0 12 -4 9 -10z m1849 -19 c16 -17 16 -22 2
-49 -8 -16 -43 -47 -78 -69 -163 -105 -261 -163 -266 -158 -3 2 3 7 12 11 9 3
16 11 16 17 0 5 -9 2 -20 -8 -11 -10 -17 -21 -15 -25 7 -12 -61 -50 -99 -56
-43 -6 -64 16 -48 51 19 41 179 159 347 253 99 56 123 61 149 33z m-2284 4 c0
-2 -10 -9 -22 -15 -22 -11 -22 -10 -4 4 21 17 26 19 26 11z m453 -12 c-7 -3
-13 -9 -13 -14 0 -6 4 -7 10 -4 6 3 7 -1 4 -9 -3 -9 -10 -14 -14 -11 -5 3 -11
-1 -13 -7 -4 -9 -6 -8 -6 2 -1 20 29 63 38 54 3 -4 0 -9 -6 -11z m925 -10
c-14 -16 -30 -37 -36 -48 -6 -11 -12 -15 -12 -8 0 13 57 83 68 83 3 0 -6 -12
-20 -27z m-963 7 c3 -5 1 -10 -4 -10 -6 0 -11 5 -11 10 0 6 2 10 4 10 3 0 8
-4 11 -10z m-99 -48 c-7 -22 -56 -59 -56 -42 0 5 4 10 9 10 20 0 42 32 35 54
-5 16 -3 18 6 10 7 -7 9 -21 6 -32z m44 17 c-7 -11 -14 -18 -17 -15 -3 3 0 12
7 21 18 21 23 19 10 -6z m644 -8 c-2 -3 -12 3 -22 13 -16 17 -16 18 5 5 12 -7
20 -15 17 -18z m-1079 9 c-3 -5 -16 -15 -28 -21 -19 -9 -19 -8 3 10 28 23 34
26 25 11z m323 -11 c3 -12 2 -12 -6 0 -6 8 -15 10 -22 6 -9 -5 -11 -4 -6 4 10
15 28 10 34 -10z m41 -1 c0 -13 -3 -17 -6 -10 -2 6 -10 9 -16 5 -7 -4 -6 1 2
10 18 22 21 21 20 -5z m103 10 c-7 -7 -12 -20 -12 -29 0 -22 -16 -33 -26 -18
-4 8 -3 9 4 5 8 -5 12 1 12 18 0 13 6 27 13 29 20 9 22 8 9 -5z m579 -5 c13
-16 12 -17 -3 -4 -10 7 -18 15 -18 17 0 8 8 3 21 -13z m-2492 -158 c157 -104
429 -220 854 -364 461 -156 590 -219 1052 -508 277 -173 436 -262 602 -337
478 -217 946 -310 1633 -323 419 -8 796 21 997 77 34 9 63 14 63 10 0 -4 -32
-37 -70 -74 -195 -183 -643 -309 -1240 -346 -316 -19 -582 -8 -885 36 -400 59
-635 141 -1230 429 -364 176 -495 220 -1070 365 -176 44 -376 99 -445 122
-233 79 -489 225 -595 340 l-58 62 6 60 c9 90 40 167 102 257 l57 79 26 -20
c166 -129 364 -230 601 -305 432 -138 773 -263 976 -359 61 -29 209 -112 330
-186 121 -73 278 -168 348 -211 70 -42 185 -101 255 -130 135 -55 483 -172
490 -164 3 2 -1 7 -9 9 -435 139 -597 213 -989 456 -118 74 -250 155 -292 181
-116 70 -429 192 -1003 389 -318 109 -477 185 -653 310 l-77 55 -3 75 c-3 86
0 102 28 148 l20 33 56 -60 c31 -34 86 -81 123 -106z m2037 141 c0 -15 -5 -21
-10 -16 -5 5 -6 16 -3 24 9 23 15 19 13 -8z m144 3 c0 -6 -4 -7 -10 -4 -5 3
-10 11 -10 16 0 6 5 7 10 4 6 -3 10 -11 10 -16z m-100 3 c0 -5 -7 -9 -15 -9
-8 0 -15 4 -15 9 0 4 7 8 15 8 8 0 15 -4 15 -8z m-338 -24 c-3 -12 0 -18 9
-16 8 2 13 -3 12 -9 -2 -7 3 -13 10 -13 6 0 4 -5 -6 -11 -9 -6 -14 -15 -11
-21 4 -7 2 -8 -4 -4 -6 4 -9 13 -5 21 3 9 1 21 -4 28 -17 22 -22 44 -8 44 7 0
10 -8 7 -19z m408 12 c0 -5 -8 -10 -17 -10 -15 0 -16 2 -3 10 19 12 20 12 20
0z m381 -7 c13 -16 12 -17 -3 -4 -10 7 -18 15 -18 17 0 8 8 3 21 -13z m-826
-27 c0 -19 -3 -32 -8 -29 -6 3 -5 40 2 61 4 11 7 -4 6 -32z m245 24 c0 -5 -2
-10 -4 -10 -3 0 -8 5 -11 10 -3 6 -1 10 4 10 6 0 11 -4 11 -10z m165 -19 c-6
-5 -25 10 -25 20 0 5 6 4 14 -3 8 -7 12 -15 11 -17z m165 19 c0 -5 -7 -10 -16
-10 -8 0 -12 5 -9 10 3 6 10 10 16 10 5 0 9 -4 9 -10z m-410 -26 c0 -2 -7 -4
-15 -4 -8 0 -15 4 -15 10 0 5 7 7 15 4 8 -4 15 -8 15 -10z m81 -1 c2 1 3 0 1
-2 -6 -11 -39 -6 -39 5 0 9 5 10 17 4 10 -5 19 -8 21 -7z m36 2 c0 -8 -4 -12
-9 -9 -5 3 -6 10 -3 15 9 13 12 11 12 -6z m64 6 c5 8 9 9 9 3 0 -6 -6 -17 -14
-23 -12 -10 -17 -8 -27 11 -11 21 -11 22 5 9 15 -13 19 -13 27 0z m96 -29 c1
-33 0 -34 -8 -13 -8 21 -6 51 3 51 2 0 4 -17 5 -38z m700 1 c-3 -10 -5 -4 -5
12 0 17 2 24 5 18 2 -7 2 -21 0 -30z m-1978 -13 c0 -10 -3 -8 -9 5 -12 27 -12
43 0 25 5 -8 9 -22 9 -30z m480 37 c-2 -1 -13 -9 -24 -17 -19 -14 -19 -14 -6
3 7 9 18 17 24 17 6 0 8 -1 6 -3z m476 -6 c-3 -5 3 -12 12 -14 14 -4 13 -5 -4
-6 -23 -1 -30 9 -16 22 9 10 15 8 8 -2z m278 -5 c3 3 3 -4 0 -17 -5 -16 -8
-19 -11 -9 -3 8 -10 22 -16 30 -9 13 -9 13 5 3 9 -7 18 -10 22 -7z m144 -18
c-6 -4 -19 -2 -29 3 -22 12 -24 21 -3 13 8 -4 15 -1 15 5 0 8 4 8 14 -1 9 -9
10 -15 3 -20z m40 17 c0 -8 -4 -12 -9 -9 -5 3 -6 10 -3 15 9 13 12 11 12 -6z
m-685 -37 c-6 -6 -12 -5 -17 3 -5 8 -4 10 3 5 8 -5 12 1 13 16 1 18 2 19 6 4
3 -10 0 -23 -5 -28z m40 10 c-8 -8 -9 -4 -5 13 4 13 8 18 11 10 2 -7 -1 -18
-6 -23z m543 22 c-3 -5 0 -10 7 -10 9 0 9 -3 -2 -10 -8 -5 -19 -10 -25 -10 -5
0 -3 5 5 10 13 9 13 10 0 10 -13 0 -13 1 0 10 19 12 23 12 15 0z m-497 -36 c4
2 13 -2 20 -10 15 -16 4 -18 -18 -4 -9 6 -17 5 -21 -1 -4 -7 -9 -4 -12 6 -5
11 -3 14 5 9 7 -5 9 -2 5 8 -3 9 -3 19 1 23 4 4 8 -3 10 -14 2 -12 6 -19 10
-17z m-388 23 c0 -2 -10 -12 -22 -23 l-23 -19 19 23 c18 21 26 27 26 19z m439
-47 c0 -9 -4 -8 -9 5 -5 11 -9 27 -9 35 0 9 4 8 9 -5 5 -11 9 -27 9 -35z m206
39 c11 -16 1 -19 -13 -3 -7 8 -8 14 -3 14 5 0 13 -5 16 -11z m-145 -9 c0 -5
-5 -10 -11 -10 -5 0 -7 5 -4 10 3 6 8 10 11 10 2 0 4 -4 4 -10z m65 0 c-3 -5
-12 -7 -20 -3 -9 3 -15 -1 -15 -9 0 -7 9 -14 20 -14 11 0 20 4 20 9 0 5 6 4
14 -2 10 -9 15 -8 19 3 3 8 1 17 -6 20 -8 3 -8 5 -1 5 6 1 17 -5 23 -13 10
-12 9 -17 -6 -24 -20 -10 -79 -10 -89 1 -12 12 5 37 26 37 12 0 19 -4 15 -10z
m392 -4 c-3 -8 -1 -17 6 -20 7 -2 4 -5 -5 -5 -10 -1 -18 1 -18 3 0 10 13 36
17 36 3 0 3 -6 0 -14z m73 -1 c0 -2 -6 -5 -13 -8 -8 -3 -14 1 -14 8 0 7 6 11
14 8 7 -3 13 -6 13 -8z m331 -57 c19 -34 2 -17 -30 30 -25 35 -26 40 -6 17 14
-16 30 -38 36 -47z m-3 47 c-3 -3 -9 2 -12 12 -6 14 -5 15 5 6 7 -7 10 -15 7
-18z m-598 5 c0 -5 -5 -10 -11 -10 -5 0 -7 5 -4 10 3 6 8 10 11 10 2 0 4 -4 4
-10z m-430 -10 c0 -5 -4 -10 -10 -10 -5 0 -10 5 -10 10 0 6 5 10 10 10 6 0 10
-4 10 -10z m400 -18 c0 -8 -1 -13 -3 -11 -1 2 -9 12 -16 22 -12 15 -12 17 3
11 9 -3 16 -13 16 -22z m684 -2 c-6 -6 -10 -3 -10 10 0 13 4 16 10 10 7 -7 7
-13 0 -20z m-894 -11 c0 -5 -5 -9 -12 -9 -6 0 -8 3 -5 7 4 3 1 13 -6 22 -11
14 -10 14 6 2 9 -7 17 -17 17 -22z m327 25 c-3 -3 -12 -4 -19 -1 -8 3 -5 6 6
6 11 1 17 -2 13 -5z m178 -25 c1 -22 -2 -26 -12 -17 -7 5 -10 14 -7 19 3 5 1
9 -4 9 -17 0 -22 -28 -6 -34 8 -3 14 -10 14 -16 0 -6 -4 -8 -10 -5 -5 3 -10
-3 -10 -14 0 -11 -5 -23 -11 -26 -6 -4 -8 -12 -6 -19 3 -6 -4 -12 -14 -12 -24
0 -24 8 0 23 23 15 34 63 15 70 -11 4 -11 8 1 20 9 8 13 18 10 23 -2 4 5 8 18
8 17 0 22 -6 22 -29z m618 -30 c14 0 17 -3 8 -6 -19 -8 -73 22 -90 50 -10 16
-4 13 23 -11 20 -17 47 -32 59 -33z m-2143 16 c0 -5 -5 -3 -10 5 -5 8 -10 20
-10 25 0 6 5 3 10 -5 5 -8 10 -19 10 -25z m986 23 c4 4 3 0 -4 -9 -6 -9 -9
-19 -5 -22 3 -4 1 -7 -6 -7 -7 0 -11 6 -8 14 3 7 0 20 -6 27 -10 11 -9 11 4 1
9 -6 20 -8 25 -4z m214 -3 c7 -9 8 -15 2 -15 -5 0 -12 7 -16 15 -3 8 -4 15 -2
15 2 0 9 -7 16 -15z m83 2 c-3 -5 5 -7 18 -5 38 5 129 -98 106 -121 -9 -9 -9
-14 1 -20 8 -5 -5 -8 -33 -9 -25 -1 -45 2 -45 7 0 5 9 7 20 4 12 -3 29 2 40
12 15 14 17 21 7 36 -8 13 -14 15 -20 6 -6 -8 -7 -7 -4 4 3 10 -5 26 -20 40
-22 20 -25 21 -20 6 4 -10 7 -23 7 -28 0 -6 4 -8 8 -5 5 3 8 -5 7 -17 -1 -12
3 -25 9 -29 6 -4 7 -11 2 -15 -5 -4 -11 -2 -13 5 -3 6 -8 10 -12 7 -5 -2 -6 7
-3 22 3 18 1 24 -7 19 -6 -4 -11 -13 -11 -21 0 -21 -19 -28 -37 -13 -15 11
-16 11 -9 -7 6 -16 5 -18 -5 -7 -7 6 -17 12 -22 12 -4 0 -5 -6 0 -12 4 -7 8
-22 8 -33 1 -11 5 -19 10 -18 6 1 11 -11 11 -25 1 -15 -1 -21 -3 -14 -3 6 -9
10 -14 6 -5 -3 -8 -2 -7 3 6 19 -22 73 -38 73 -11 0 -14 -5 -9 -17 11 -30 11
-35 -4 -41 -8 -3 -11 0 -7 6 4 7 2 20 -3 30 -9 17 -4 22 32 38 23 10 51 25 62
33 18 15 19 15 7 0 -6 -9 -9 -19 -5 -22 12 -13 23 -7 23 13 0 11 5 20 10 20 6
0 10 8 10 18 0 10 -3 13 -8 7 -9 -13 -27 -13 -39 -1 -4 5 -3 6 3 3 6 -4 19 2
28 12 16 18 15 19 -21 23 -21 3 -39 1 -41 -4 -2 -4 -8 -8 -13 -8 -5 0 -4 8 2
18 6 10 19 18 29 18 10 0 16 -4 13 -9z m111 -19 c-8 -13 9 -9 30 7 11 8 27 15
35 14 11 0 12 -2 4 -6 -14 -5 -18 -33 -5 -33 5 0 9 -7 9 -15 0 -8 -4 -12 -8
-9 -4 2 -9 1 -12 -3 -2 -5 -2 -2 -1 5 2 6 1 18 -2 26 -5 12 -11 13 -30 4 -18
-9 -28 -8 -36 0 -9 9 -9 12 0 12 6 0 9 8 6 18 -5 14 -4 14 4 2 6 -8 8 -18 6
-22z m-768 10 c5 -7 3 -8 -5 -3 -8 4 -25 -4 -44 -21 l-32 -29 29 33 c32 35 41
38 52 20z m934 -28 c-22 -22 -38 -27 -23 -7 6 6 9 20 8 29 -3 15 0 16 16 8 18
-10 18 -11 -1 -30z m800 30 c-8 -5 -19 -10 -25 -10 -5 0 -3 5 5 10 8 5 20 10
25 10 6 0 3 -5 -5 -10z m800 -16 c22 -15 40 -29 40 -31 0 -5 -27 11 -75 44
-11 7 -16 13 -12 13 4 0 25 -12 47 -26z m-2499 -11 c13 -16 12 -17 -3 -4 -17
13 -22 21 -14 21 2 0 10 -8 17 -17z m549 -3 c0 -5 -2 -10 -4 -10 -3 0 -8 5
-11 10 -3 6 -1 10 4 10 6 0 11 -4 11 -10z m70 -2 c-21 -8 -38 -13 -60 -17 -3
-1 1 -5 8 -10 10 -6 9 -10 -7 -14 -26 -7 -27 5 -1 28 11 10 20 15 20 11 0 -4
8 -2 18 3 9 6 24 10 32 10 8 0 4 -5 -10 -11z m-340 -2 c0 -3 -4 -8 -10 -11 -5
-3 -10 -1 -10 4 0 6 5 11 10 11 6 0 10 -2 10 -4z m631 -19 c-10 -9 -11 -8 -5
6 3 10 9 15 12 12 3 -3 0 -11 -7 -18z m24 -26 c-8 -17 -20 -31 -26 -31 -6 0
-7 -5 -3 -11 4 -8 9 -8 17 0 6 6 15 11 21 11 5 0 2 -6 -8 -13 -16 -12 -16 -14
3 -36 27 -31 27 -52 1 -23 -11 12 -20 25 -20 30 0 4 -6 14 -12 21 -7 6 -14 16
-14 22 -1 5 -2 14 -3 19 0 6 -7 10 -15 10 -8 0 -18 4 -21 10 -4 6 2 7 17 1 28
-10 68 6 69 28 0 9 3 11 5 4 3 -6 -2 -25 -11 -42z m51 24 c1 -8 -5 -15 -13
-15 -12 0 -13 3 -4 13 6 8 9 17 6 20 -3 4 -2 5 2 2 4 -3 8 -12 9 -20z m-945
-2 c13 -16 12 -17 -3 -4 -10 7 -18 15 -18 17 0 8 8 3 21 -13z m299 12 c0 -2
-10 -10 -22 -16 -21 -11 -22 -11 -9 4 13 16 31 23 31 12z m183 -12 c-3 -7 -6
-13 -8 -13 -2 0 -5 6 -8 13 -3 8 1 14 8 14 7 0 11 -6 8 -14z m242 -9 c9 -15
12 -23 6 -20 -11 7 -35 46 -28 46 3 0 12 -12 22 -26z m-885 2 c0 -2 -8 -10
-17 -17 -16 -13 -17 -12 -4 4 13 16 21 21 21 13z m164 -39 c22 -17 36 -25 32
-19 -12 20 9 13 24 -7 7 -11 17 -18 22 -15 4 3 8 -3 8 -13 0 -14 2 -15 9 -4 7
11 11 10 20 -5 6 -11 11 -15 11 -11 0 4 11 -3 25 -15 14 -13 42 -32 62 -43 21
-10 52 -29 69 -41 17 -13 34 -20 38 -17 3 4 6 -1 6 -11 0 -9 4 -15 9 -12 4 3
28 -7 52 -23 24 -16 63 -41 87 -55 23 -15 40 -31 37 -36 -10 -16 11 -11 25 5
16 19 21 19 46 -1 18 -14 18 -15 -4 -4 -12 6 -27 8 -33 5 -10 -7 97 -77 119
-78 9 0 8 -5 -3 -17 -8 -9 -13 -19 -10 -22 7 -6 -39 -49 -56 -52 -25 -5 -69
-29 -69 -38 0 -14 12 -9 39 15 l26 22 -24 -28 c-17 -19 -31 -25 -44 -21 -11 3
-26 -1 -38 -12 -10 -9 -19 -12 -19 -6 0 14 28 42 43 42 12 0 -12 20 -25 20 -3
0 -12 -16 -18 -36 -8 -23 -17 -34 -25 -30 -9 3 -12 0 -8 -10 4 -10 0 -12 -11
-8 -10 4 -15 13 -12 20 3 8 1 14 -4 14 -6 0 -10 -4 -10 -10 0 -18 -20 -11 -21
8 0 11 -2 12 -6 4 -4 -11 -8 -10 -22 2 -9 8 -18 14 -21 13 -3 -1 -32 13 -65
31 -33 18 -105 56 -161 85 -204 106 -222 120 -226 180 -1 15 -6 27 -10 27 -4
0 -5 18 -2 40 3 22 2 40 -3 40 -15 0 -5 69 12 86 8 9 13 20 10 25 -4 5 -1 17
5 26 10 16 11 16 6 -2 -6 -20 -6 -20 9 -1 8 11 15 23 15 27 0 14 46 -4 84 -34z
m526 8 c-14 -8 -37 -14 -52 -15 -29 0 -38 -15 -15 -23 6 -2 10 -7 7 -10 -3 -3
-12 -2 -19 3 -22 13 -5 40 26 40 15 0 35 5 43 10 8 5 20 10 25 9 6 0 -1 -6
-15 -14z m435 5 c3 -6 -1 -7 -9 -4 -18 7 -21 14 -7 14 6 0 13 -4 16 -10z m732
-37 c-3 -10 -5 -2 -5 17 0 19 2 27 5 18 2 -10 2 -26 0 -35z m-867 12 c14 -19
14 -19 -2 -6 -10 7 -18 18 -18 24 0 6 1 8 3 6 1 -2 9 -13 17 -24z m105 15 c3
-5 1 -10 -4 -10 -6 0 -11 5 -11 10 0 6 2 10 4 10 3 0 8 -4 11 -10z m-1137 -25
c-6 -14 -13 -23 -15 -21 -5 5 15 46 22 46 3 0 -1 -11 -7 -25z m372 -42 c19
-12 31 -23 27 -23 -9 0 -117 71 -117 78 0 4 22 -9 90 -55z m631 33 c-6 -7 -8
-16 -4 -20 4 -4 0 -4 -8 -1 -9 3 -23 -3 -33 -14 -10 -11 -24 -17 -32 -14 -8 3
-14 1 -14 -5 0 -6 6 -13 13 -15 9 -4 9 -6 0 -6 -27 -2 -25 42 2 53 10 3 12 0
8 -12 -5 -14 -2 -13 14 3 l20 20 -21 7 c-14 5 -10 6 12 3 24 -3 32 -1 32 11 0
8 5 12 10 9 8 -5 8 -11 1 -19z m156 9 c0 -8 -9 -22 -19 -32 -10 -9 -18 -11
-18 -6 0 6 7 13 15 17 8 3 15 9 14 13 -2 11 0 23 4 23 2 0 4 -7 4 -15z m-345
-29 c-5 -6 -11 -16 -13 -23 -2 -7 -9 -1 -16 13 -11 23 -10 24 4 12 14 -11 16
-11 10 4 -4 12 -2 15 9 11 9 -3 11 -9 6 -17z m315 18 c-3 -3 -12 -4 -19 -1 -8
3 -5 6 6 6 11 1 17 -2 13 -5z m-82 -28 c0 -15 -4 -21 -9 -16 -5 5 -6 16 -3 24
9 22 12 20 12 -8z m403 10 c-7 -8 -15 -12 -17 -11 -5 6 10 25 20 25 5 0 4 -6
-3 -14z m1232 -21 c-19 -14 -36 -25 -39 -25 -10 0 53 49 63 50 6 0 -5 -11 -24
-25z m-1845 5 c3 -5 1 -10 -4 -10 -6 0 -11 5 -11 10 0 6 2 10 4 10 3 0 8 -4
11 -10z m47 -5 c0 -5 -5 -11 -11 -13 -6 -2 -11 4 -11 13 0 9 5 15 11 13 6 -2
11 -8 11 -13z m-202 -28 c0 -4 -9 -3 -20 3 -11 6 -20 15 -20 20 0 6 9 5 20 -2
11 -7 20 -16 20 -21z m286 8 c-9 -9 -16 -13 -16 -8 0 12 22 34 28 28 2 -2 -3
-11 -12 -20z m2126 -99 c139 -68 354 -164 478 -214 124 -50 260 -106 302 -125
l77 -33 -47 -16 c-149 -51 -293 -68 -534 -62 -151 4 -496 28 -558 39 -14 2
-54 7 -90 10 -36 3 -110 10 -164 16 -118 12 -317 15 -366 5 -50 -11 -143 -44
-230 -82 -41 -18 -92 -35 -112 -39 -43 -8 -111 2 -103 14 2 5 -3 8 -12 7 -9 0
-27 14 -40 33 -23 33 -31 67 -14 57 5 -3 11 13 14 35 6 45 32 77 60 71 9 -2
17 2 17 8 0 6 -4 8 -10 5 -19 -12 -10 5 19 35 15 17 32 30 36 30 4 0 13 7 19
16 25 33 113 46 356 53 213 7 241 9 295 31 59 23 257 150 307 197 16 15 31 22
39 18 8 -5 10 -4 5 3 -4 7 -5 12 -2 12 2 0 118 -56 258 -124z m-2072 110 c0
-2 -7 -6 -15 -10 -8 -3 -15 -1 -15 4 0 6 7 10 15 10 8 0 15 -2 15 -4z m54 -39
c-3 -10 1 -19 10 -23 9 -3 16 -11 16 -17 0 -5 -9 -2 -20 8 -12 10 -18 25 -16
32 3 7 1 13 -4 13 -5 0 -7 7 -3 16 8 22 25 -5 17 -29z m-639 13 c3 -6 -1 -7
-9 -4 -18 7 -21 14 -7 14 6 0 13 -4 16 -10z m375 -20 c12 -23 12 -24 -3 -11
-10 7 -17 9 -17 4 0 -5 -7 -10 -15 -10 -8 0 -15 4 -15 9 0 4 7 8 15 8 8 0 15
8 15 17 0 19 3 17 20 -17z m57 18 c0 -7 2 -19 4 -27 3 -8 -5 -14 -20 -16 -21
-2 -22 0 -7 10 17 13 23 30 7 20 -5 -3 -13 0 -17 6 -4 7 -3 9 4 5 6 -3 13 -2
17 4 8 13 12 13 12 -2z m303 -4 c0 -2 -9 -4 -20 -4 -11 0 -20 4 -20 9 0 5 9 7
20 4 11 -3 20 -7 20 -9z m-165 -4 c-4 -6 -10 -8 -15 -5 -4 3 -13 -2 -20 -10
-7 -8 -20 -15 -29 -14 -11 0 -10 3 5 9 12 5 25 13 29 19 3 6 13 11 21 11 8 0
12 -5 9 -10z m1555 6 c0 -2 -7 -7 -16 -10 -8 -3 -12 -2 -9 4 6 10 25 14 25 6z
m-1648 -20 c7 4 8 2 4 -5 -9 -13 -26 -5 -25 12 0 9 2 8 6 -1 2 -6 10 -9 15 -6z
m209 -2 c2 2 5 -9 6 -26 2 -31 -9 -31 -13 0 -2 9 -8 18 -13 20 -6 2 -11 8 -11
14 0 7 5 7 13 -1 8 -6 16 -9 18 -7z m1470 2 c-16 -19 -149 -79 -164 -73 -7 3
-5 6 6 6 9 1 17 6 17 12 0 5 4 8 9 4 11 -6 82 25 76 35 -2 3 6 7 17 7 12 1 26
7 31 12 16 16 21 13 8 -3z m-2053 -41 c34 -21 62 -40 62 -42 0 -5 -1 -5 -77
42 -35 21 -63 40 -63 42 0 5 1 5 78 -42z m628 37 c8 -5 5 -13 -9 -27 -20 -20
-20 -20 -8 2 8 16 8 23 -2 26 -6 3 -7 6 -2 6 6 0 15 -3 21 -7z m1319 -20 c-3
-3 -11 0 -18 7 -9 10 -8 11 6 5 10 -3 15 -9 12 -12z m-2528 -69 c-2 -16 -4 -5
-4 22 0 28 2 40 4 28 2 -13 2 -35 0 -50z m930 45 c-3 -8 -6 -5 -6 6 -1 11 2
17 5 13 3 -3 4 -12 1 -19z m92 -6 c-1 -15 -2 -15 -6 1 -2 9 -9 14 -15 11 -7
-4 -8 -2 -4 5 10 15 26 4 25 -17z m1108 22 c-3 -3 -12 -4 -19 -1 -8 3 -5 6 6
6 11 1 17 -2 13 -5z m-757 -17 c0 -2 -10 -12 -22 -23 l-23 -19 19 23 c18 21
26 27 26 19z m100 0 c0 -2 -10 -12 -22 -23 l-23 -19 19 23 c18 21 26 27 26 19z
m660 -26 c0 -6 -9 -9 -19 -8 -11 0 -17 5 -15 9 7 11 34 10 34 -1z m310 -1 c-8
-5 -19 -10 -25 -10 -5 0 -3 5 5 10 8 5 20 10 25 10 6 0 3 -5 -5 -10z m-1436
-21 c4 6 12 11 17 11 6 0 3 -7 -5 -16 -17 -16 -36 -11 -36 9 0 8 3 8 9 -2 6
-9 11 -10 15 -2z m999 4 c-7 -2 -19 -2 -25 0 -7 3 -2 5 12 5 14 0 19 -2 13 -5z
m54 1 c-3 -3 -12 -4 -19 -1 -8 3 -5 6 6 6 11 1 17 -2 13 -5z m-1351 -32 c-4
-3 -14 2 -24 12 -16 18 -16 18 6 6 13 -6 21 -14 18 -18z m674 25 c0 -2 -9 -12
-20 -22 -24 -21 -27 -14 -4 9 15 15 24 20 24 13z m563 -4 c-7 -2 -19 -2 -25 0
-7 3 -2 5 12 5 14 0 19 -2 13 -5z m-73 -17 c-19 -7 -48 -19 -65 -25 -16 -7
-26 -9 -22 -5 13 14 82 42 102 43 12 0 6 -5 -15 -13z m-770 0 c0 -11 -19 -15
-25 -6 -3 5 1 10 9 10 9 0 16 -2 16 -4z m194 -9 c-2 -7 -14 -19 -27 -26 -21
-13 -21 -12 2 13 27 29 33 32 25 13z m406 9 c0 -2 -7 -7 -16 -10 -8 -3 -12 -2
-9 4 6 10 25 14 25 6z m-300 -15 c0 -5 -7 -12 -16 -15 -14 -5 -15 -4 -4 9 14
17 20 19 20 6z m315 -59 c-6 -4 -27 -23 -49 -42 -21 -20 -33 -26 -26 -15 11
18 68 65 79 65 3 0 1 -3 -4 -8z m-511 -17 c-4 -8 -11 -15 -16 -15 -6 0 -5 6 2
15 7 8 14 15 16 15 2 0 1 -7 -2 -15z m115 -2 c-17 -21 -31 -33 -42 -33 -8 0
44 49 52 50 2 0 -3 -8 -10 -17z m291 13 c0 -2 -7 -9 -15 -16 -13 -11 -14 -10
-9 4 5 14 24 23 24 12z m-660 -68 c0 -4 -22 6 -50 23 -27 17 -50 33 -50 35 0
7 100 -51 100 -58z m-784 36 c18 -14 18 -14 -6 -3 -31 14 -36 19 -24 19 6 0
19 -7 30 -16z m999 -12 c-53 -42 -60 -46 -33 -19 16 15 31 27 35 27 4 0 3 -3
-2 -8z m60 -2 c-3 -5 -12 -10 -18 -10 -7 0 -6 4 3 10 19 12 23 12 15 0z m-985
-26 c0 -2 -9 0 -20 6 -11 6 -20 13 -20 16 0 2 9 0 20 -6 11 -6 20 -13 20 -16z
m950 2 c0 -2 -8 -10 -17 -17 -16 -13 -17 -12 -4 4 13 16 21 21 21 13z m-915
-16 c3 -6 -1 -7 -9 -4 -18 7 -21 14 -7 14 6 0 13 -4 16 -10z m815 -20 c0 -5
-5 -10 -11 -10 -5 0 -7 5 -4 10 3 6 8 10 11 10 2 0 4 -4 4 -10z m513 -37 c-8
-27 -15 -61 -15 -78 0 -24 -1 -26 -7 -10 -10 25 18 135 34 135 1 0 -4 -21 -12
-47z m-473 22 c0 -2 -10 -9 -22 -15 -22 -11 -22 -10 -4 4 21 17 26 19 26 11z
m-745 -35 c3 -6 -1 -7 -9 -4 -18 7 -21 14 -7 14 6 0 13 -4 16 -10z m761 -5
c-11 -8 -24 -15 -30 -15 -5 0 -1 7 10 15 10 8 24 14 29 14 6 0 1 -6 -9 -14z
m-661 -55 c3 -5 -10 -1 -29 11 -20 12 -36 23 -36 25 0 7 58 -25 65 -36z m505
26 c0 -2 -12 -11 -27 -20 l-28 -17 24 20 c23 21 31 25 31 17z m-265 -76 c-21
-22 -42 -40 -47 -40 -7 0 73 79 82 80 2 0 -14 -18 -35 -40z m822 18 c-3 -8 -6
-5 -6 6 -1 11 2 17 5 13 3 -3 4 -12 1 -19z m-987 -14 c0 -2 -9 0 -20 6 -11 6
-20 13 -20 16 0 2 9 0 20 -6 11 -6 20 -13 20 -16z m473 12 c4 -10 1 -13 -8 -9
-8 3 -12 9 -9 14 7 12 11 11 17 -5z m3057 -76 c-8 -5 -19 -10 -25 -10 -5 0 -3
5 5 10 8 5 20 10 25 10 6 0 3 -5 -5 -10z m91 -17 c13 -16 12 -17 -3 -4 -10 7
-18 15 -18 17 0 8 8 3 21 -13z m-1898 -10 c-7 -2 -19 -2 -25 0 -7 3 -2 5 12 5
14 0 19 -2 13 -5z m210 0 c-7 -2 -21 -2 -30 0 -10 3 -4 5 12 5 17 0 24 -2 18
-5z m44 1 c-3 -3 -12 -4 -19 -1 -8 3 -5 6 6 6 11 1 17 -2 13 -5z m-913 -20 c3
-8 2 -12 -4 -9 -6 3 -10 10 -10 16 0 14 7 11 14 -7z m584 2 c-7 -7 -19 -11
-27 -8 -11 4 -10 7 5 13 29 12 36 10 22 -5z m415 7 c-7 -2 -21 -2 -30 0 -10 3
-4 5 12 5 17 0 24 -2 18 -5z m48 -11 c-7 -2 -18 1 -23 6 -8 8 -4 9 13 5 13 -4
18 -8 10 -11z m1609 -48 c17 -19 10 -15 -20 10 -61 53 -71 63 -35 39 17 -12
41 -34 55 -49z m-1893 50 c-3 -3 -12 -4 -19 -1 -8 3 -5 6 6 6 11 1 17 -2 13
-5z m346 -1 c-7 -2 -21 -2 -30 0 -10 3 -4 5 12 5 17 0 24 -2 18 -5z m1257 3
c0 -2 -7 -7 -16 -10 -8 -3 -12 -2 -9 4 6 10 25 14 25 6z m-1147 -13 c-7 -2
-21 -2 -30 0 -10 3 -4 5 12 5 17 0 24 -2 18 -5z m1067 3 c0 -2 -9 -6 -20 -9
-11 -3 -18 -1 -14 4 5 9 34 13 34 5z m-1780 -10 c0 -5 -88 -46 -97 -45 -9 0
77 46 90 48 4 1 7 -1 7 -3z m827 -2 c-3 -3 -12 -4 -19 -1 -8 3 -5 6 6 6 11 1
17 -2 13 -5z m60 -10 c-3 -3 -12 -4 -19 -1 -8 3 -5 6 6 6 11 1 17 -2 13 -5z
m-1323 -53 c-2 -2 -10 1 -17 7 -8 7 -18 8 -23 4 -5 -4 -6 -3 -2 2 4 5 2 16 -5
25 -6 9 2 4 19 -9 17 -14 30 -27 28 -29z m1136 45 c0 -2 -9 -6 -20 -9 -11 -3
-18 -1 -14 4 5 9 34 13 34 5z m353 -3 c-7 -2 -21 -2 -30 0 -10 3 -4 5 12 5 17
0 24 -2 18 -5z m-1558 -13 c3 -6 -1 -7 -9 -4 -18 7 -21 14 -7 14 6 0 13 -4 16
-10z m1722 4 c-3 -3 -12 -4 -19 -1 -8 3 -5 6 6 6 11 1 17 -2 13 -5z m183 -4
c0 -5 -2 -10 -4 -10 -3 0 -8 5 -11 10 -3 6 -1 10 4 10 6 0 11 -4 11 -10z m143
3 c-7 -2 -19 -2 -25 0 -7 3 -2 5 12 5 14 0 19 -2 13 -5z m-586 -9 c-3 -3 -12
-4 -19 -1 -8 3 -5 6 6 6 11 1 17 -2 13 -5z m-1077 -14 c-8 -5 -19 -10 -25 -10
-5 0 -3 5 5 10 8 5 20 10 25 10 6 0 3 -5 -5 -10z m136 -15 c-11 -8 -22 -12
-25 -9 -6 6 19 24 34 24 6 -1 1 -7 -9 -15z m-116 1 c0 -2 -7 -7 -16 -10 -8 -3
-12 -2 -9 4 6 10 25 14 25 6z m2290 -21 c0 -8 -3 -16 -7 -18 -5 -3 -8 5 -8 18
0 13 3 21 8 18 4 -2 7 -10 7 -18z m-2543 -1 c-3 -3 -12 -4 -19 -1 -8 3 -5 6 6
6 11 1 17 -2 13 -5z m140 0 c-3 -3 -12 -4 -19 -1 -8 3 -5 6 6 6 11 1 17 -2 13
-5z m-36 -21 c13 -16 12 -17 -3 -4 -17 13 -22 21 -14 21 2 0 10 -8 17 -17z
m76 -15 c-3 -8 -6 -5 -6 6 -1 11 2 17 5 13 3 -3 4 -12 1 -19z"/>
<path d="M3336 7027 c3 -10 9 -15 12 -12 3 3 0 11 -7 18 -10 9 -11 8 -5 -6z"/>
<path d="M3190 7026 c0 -2 7 -9 15 -16 9 -7 15 -8 15 -2 0 5 -7 12 -15 16 -8
3 -15 4 -15 2z"/>
<path d="M3214 6992 c-16 -19 -25 -23 -40 -17 -46 20 -60 13 -16 -8 24 -13 30
-12 59 8 17 12 28 26 25 32 -4 5 -16 -1 -28 -15z"/>
<path d="M3095 6990 c-3 -5 -1 -10 4 -10 6 0 11 5 11 10 0 6 -2 10 -4 10 -3 0
-8 -4 -11 -10z"/>
<path d="M3325 6989 c-11 -16 -1 -19 13 -3 7 8 8 14 3 14 -5 0 -13 -5 -16 -11z"/>
<path d="M3249 6968 c14 -19 32 -15 30 5 0 8 -2 8 -6 -1 -4 -10 -8 -10 -21 0
-15 12 -16 11 -3 -4z"/>
<path d="M3416 6957 c3 -10 9 -15 12 -12 3 3 0 11 -7 18 -10 9 -11 8 -5 -6z"/>
<path d="M3303 6945 c-9 -24 1 -27 15 -5 8 13 8 20 2 20 -6 0 -13 -7 -17 -15z"/>
<path d="M3340 6939 c0 -5 5 -7 10 -4 6 3 10 8 10 11 0 2 -4 4 -10 4 -5 0 -10
-5 -10 -11z"/>
<path d="M3065 6900 c-16 -7 -17 -9 -3 -9 9 -1 20 4 23 9 7 11 7 11 -20 0z"/>
<path d="M3165 6901 c-6 -11 9 -23 19 -14 9 9 7 23 -3 23 -6 0 -12 -4 -16 -9z"/>
<path d="M3326 6902 c-3 -5 1 -9 9 -9 8 0 15 4 15 9 0 4 -4 8 -9 8 -6 0 -12
-4 -15 -8z"/>
<path d="M3197 6869 c-3 -10 -1 -17 3 -14 5 3 10 -7 12 -22 2 -14 9 -29 17
-31 11 -4 12 0 6 14 -4 11 -8 26 -9 35 0 9 -6 21 -12 27 -9 8 -13 6 -17 -9z"/>
<path d="M3016 6872 c-2 -4 2 -16 10 -27 12 -16 14 -17 14 -2 0 9 -5 17 -11
17 -5 0 -7 5 -4 10 3 6 4 10 1 10 -3 0 -7 -3 -10 -8z"/>
<path d="M2920 6850 c-9 -6 -10 -10 -3 -10 6 0 15 5 18 10 8 12 4 12 -15 0z"/>
<path d="M3075 6850 c3 -5 8 -10 11 -10 2 0 4 5 4 10 0 6 -5 10 -11 10 -5 0
-7 -4 -4 -10z"/>
<path d="M3425 6849 c-4 -6 -5 -12 -2 -15 2 -3 7 2 10 11 7 17 1 20 -8 4z"/>
<path d="M3116 6839 c8 -13 41 -16 41 -4 0 7 -10 12 -23 11 -12 0 -20 -4 -18
-7z"/>
<path d="M2976 6827 c3 -10 9 -15 12 -12 3 3 0 11 -7 18 -10 9 -11 8 -5 -6z"/>
<path d="M3064 6819 c0 -10 4 -19 8 -19 4 0 8 6 8 14 0 8 -4 17 -8 20 -4 2 -8
-4 -8 -15z"/>
<path d="M3297 6833 c-4 -3 -7 -13 -7 -21 0 -18 13 -7 16 13 2 17 1 18 -9 8z"/>
<path d="M3366 6828 c3 -4 11 -5 19 -1 21 7 19 12 -4 10 -11 0 -18 -5 -15 -9z"/>
<path d="M2923 6818 c2 -7 -3 -22 -12 -32 -15 -18 -15 -18 5 -8 12 6 23 9 26
7 2 -2 4 5 4 15 0 11 -6 22 -14 25 -8 3 -12 0 -9 -7z"/>
<path d="M3005 6800 c-3 -5 -1 -10 4 -10 6 0 11 5 11 10 0 6 -2 10 -4 10 -3 0
-8 -4 -11 -10z"/>
<path d="M3190 6794 c0 -8 5 -12 10 -9 6 4 8 11 5 16 -9 14 -15 11 -15 -7z"/>
<path d="M3318 6793 c6 -2 12 -9 12 -14 0 -6 -6 -7 -12 -3 -10 5 -10 4 -1 -6
7 -8 16 -11 19 -7 10 10 -4 37 -18 36 -10 0 -10 -2 0 -6z"/>
<path d="M3050 6770 c0 -5 5 -10 10 -10 6 0 10 5 10 10 0 6 -4 10 -10 10 -5 0
-10 -4 -10 -10z"/>
<path d="M2870 6761 c0 -7 -5 -9 -12 -5 -7 5 -8 3 -3 -5 5 -9 10 -10 18 -2 6
6 8 14 4 18 -4 3 -7 1 -7 -6z"/>
<path d="M2933 6755 c0 -8 4 -15 9 -15 4 0 8 4 8 9 0 6 -4 12 -8 15 -5 3 -9
-1 -9 -9z"/>
<path d="M2986 6761 c-3 -5 1 -11 9 -14 9 -4 12 -1 8 9 -6 16 -10 17 -17 5z"/>
<path d="M3185 6760 c-3 -6 1 -7 9 -4 18 7 21 14 7 14 -6 0 -13 -4 -16 -10z"/>
<path d="M3505 6760 c3 -5 1 -10 -5 -10 -6 0 -8 -5 -4 -11 4 -8 9 -7 15 2 12
19 11 29 -2 29 -5 0 -7 -4 -4 -10z"/>
<path d="M3347 6753 c-3 -5 -1 -17 4 -28 6 -17 7 -16 6 8 -1 28 -3 32 -10 20z"/>
<path d="M3052 6734 c-11 -12 -11 -17 1 -28 12 -12 14 -10 15 15 1 33 1 33
-16 13z"/>
<path d="M3089 6748 c-1 -2 -3 -16 -4 -33 -2 -16 -1 -24 2 -17 4 10 8 10 19 1
12 -10 13 -9 8 5 -3 9 -11 16 -16 16 -6 0 -8 7 -4 15 4 12 0 23 -5 13z"/>
<path d="M3155 6730 c3 -5 8 -10 11 -10 2 0 4 5 4 10 0 6 -5 10 -11 10 -5 0
-7 -4 -4 -10z"/>
<path d="M3263 6720 c15 -12 27 -28 27 -36 0 -8 5 -14 10 -14 7 0 7 6 0 19 -8
16 -6 22 7 30 10 6 13 11 6 11 -6 0 -15 -4 -18 -10 -4 -6 -16 -4 -33 6 l-27
16 28 -22z"/>
<path d="M3420 6731 c0 -6 4 -13 10 -16 6 -3 7 1 4 9 -7 18 -14 21 -14 7z"/>
<path d="M3490 6713 c0 -15 18 -35 23 -27 3 5 -1 15 -9 22 -8 7 -14 9 -14 5z"/>
<path d="M3575 6709 c-4 -5 -4 -13 -1 -16 3 -4 6 0 6 8 0 11 2 11 10 -1 6 -9
10 -10 10 -3 0 17 -17 25 -25 12z"/>
<path d="M3180 6679 c0 -5 5 -7 10 -4 6 3 10 8 10 11 0 2 -4 4 -10 4 -5 0 -10
-5 -10 -11z"/>
<path d="M3260 6680 c0 -5 5 -10 10 -10 6 0 10 5 10 10 0 6 -4 10 -10 10 -5 0
-10 -4 -10 -10z"/>
<path d="M3030 6669 c0 -5 5 -7 10 -4 6 3 10 8 10 11 0 2 -4 4 -10 4 -5 0 -10
-5 -10 -11z"/>
<path d="M3337 6663 c3 -7 6 -13 8 -13 2 0 5 6 8 13 3 8 -1 14 -8 14 -7 0 -11
-6 -8 -14z"/>
<path d="M3550 6670 c8 -5 20 -10 25 -10 6 0 3 5 -5 10 -8 5 -19 10 -25 10 -5
0 -3 -5 5 -10z"/>
<path d="M3476 6657 c3 -10 9 -15 12 -12 3 3 0 11 -7 18 -10 9 -11 8 -5 -6z"/>
<path d="M3169 6643 c-13 -16 -12 -17 4 -4 9 7 17 15 17 17 0 8 -8 3 -21 -13z"/>
<path d="M3206 6633 c-4 -9 -3 -20 2 -25 6 -6 10 1 10 16 0 30 -3 32 -12 9z"/>
<path d="M3303 6633 c4 -3 2 -12 -4 -20 -9 -9 -8 -13 0 -13 6 0 11 5 11 11 0
5 6 7 13 3 8 -5 8 -2 -2 9 -7 9 -16 17 -19 17 -3 0 -2 -3 1 -7z"/>
<path d="M3350 6620 c6 -11 13 -20 16 -20 2 0 0 9 -6 20 -6 11 -13 20 -16 20
-2 0 0 -9 6 -20z"/>
<path d="M3605 6630 c3 -5 8 -10 11 -10 2 0 4 5 4 10 0 6 -5 10 -11 10 -5 0
-7 -4 -4 -10z"/>
<path d="M3181 6604 c0 -11 3 -14 6 -6 3 7 2 16 -1 19 -3 4 -6 -2 -5 -13z"/>
<path d="M3385 6610 c3 -5 8 -10 11 -10 2 0 4 5 4 10 0 6 -5 10 -11 10 -5 0
-7 -4 -4 -10z"/>
<path d="M3250 6600 c0 -5 5 -10 10 -10 6 0 10 5 10 10 0 6 -4 10 -10 10 -5 0
-10 -4 -10 -10z"/>
<path d="M3160 6586 c0 -2 8 -10 18 -17 15 -13 16 -12 3 4 -13 16 -21 21 -21
13z"/>
<path d="M3201 6574 c0 -11 3 -14 6 -6 3 7 2 16 -1 19 -3 4 -6 -2 -5 -13z"/>
<path d="M3396 6577 c3 -10 9 -15 12 -12 3 3 0 11 -7 18 -10 9 -11 8 -5 -6z"/>
<path d="M3295 6561 c-6 -11 9 -23 19 -14 9 9 7 23 -3 23 -6 0 -12 -4 -16 -9z"/>
<path d="M3370 6560 c-9 -6 -10 -10 -3 -10 6 0 15 5 18 10 8 12 4 12 -15 0z"/>
<path d="M3430 6560 c0 -6 7 -10 15 -10 8 0 15 2 15 4 0 2 -7 6 -15 10 -8 3
-15 1 -15 -4z"/>
<path d="M3269 6523 c-11 -13 -11 -15 -1 -9 8 5 19 1 28 -10 14 -17 14 -17 3
6 -6 14 -13 26 -14 28 -1 1 -8 -5 -16 -15z"/>
<path d="M3314 6528 c-3 -4 2 -8 10 -8 9 0 16 -6 16 -12 0 -13 20 10 20 24 0
9 -40 6 -46 -4z"/>
<path d="M3383 6518 c-2 -16 1 -17 13 -8 17 15 17 17 1 23 -8 3 -14 -3 -14
-15z"/>
<path d="M2890 6459 c0 -5 5 -7 10 -4 6 3 10 8 10 11 0 2 -4 4 -10 4 -5 0 -10
-5 -10 -11z"/>
<path d="M2820 6440 c-12 -8 -11 -10 8 -10 12 0 22 5 22 10 0 13 -11 13 -30 0z"/>
<path d="M3040 6446 c0 -2 7 -7 16 -10 8 -3 12 -2 9 4 -6 10 -25 14 -25 6z"/>
<path d="M3433 6310 c-13 -5 -23 -7 -23 -3 0 3 -6 1 -12 -4 -7 -5 -25 -8 -40
-7 -16 2 -28 -2 -28 -8 0 -7 15 -8 43 -4 23 4 50 7 59 7 9 0 19 7 22 15 3 8 4
14 3 13 -1 0 -12 -4 -24 -9z"/>
<path d="M3475 6310 c-3 -5 1 -10 10 -10 9 0 13 5 10 10 -3 6 -8 10 -10 10 -2
0 -7 -4 -10 -10z"/>
<path d="M3535 6310 c3 -5 8 -10 11 -10 2 0 4 5 4 10 0 6 -5 10 -11 10 -5 0
-7 -4 -4 -10z"/>
<path d="M3258 6268 c7 -7 20 -7 39 0 28 9 27 9 -10 10 -26 0 -36 -3 -29 -10z"/>
<path d="M3215 6260 c6 -10 -50 -24 -64 -16 -5 3 -26 -2 -47 -11 -30 -13 -35
-18 -20 -21 10 -2 22 1 26 8 6 10 8 10 12 0 3 -9 15 -8 53 4 48 17 85 34 75
36 -31 7 -39 7 -35 0z"/>
<path d="M3722 5979 c-9 -4 -20 -5 -24 -2 -5 2 -8 -1 -8 -8 0 -7 -2 -10 -6 -7
-3 3 -26 -1 -51 -8 -26 -8 -49 -12 -51 -9 -3 3 -10 1 -16 -5 -7 -5 -27 -12
-45 -15 -18 -3 -50 -14 -70 -25 -36 -19 -36 -19 -8 -20 19 0 26 4 21 12 -5 8
0 9 14 6 12 -4 25 -1 30 5 4 7 16 13 27 13 11 1 46 9 78 18 32 9 67 16 77 16
11 0 20 3 20 8 0 4 17 7 37 8 21 0 67 2 102 2 35 1 61 5 57 9 -8 9 -161 10
-184 2z"/>
<path d="M3935 5980 c-4 -6 3 -10 14 -10 25 0 27 6 6 13 -8 4 -17 2 -20 -3z"/>
<path d="M3988 5963 c7 -3 16 -2 19 1 4 3 -2 6 -13 5 -11 0 -14 -3 -6 -6z"/>
<path d="M4303 5878 c-2 -16 1 -18 10 -9 7 7 8 14 1 21 -6 6 -10 2 -11 -12z"/>
<path d="M4075 5662 c-11 -2 -24 -9 -30 -14 -7 -7 -2 -9 15 -4 14 3 44 6 68 6
23 0 42 4 42 9 0 8 -59 11 -95 3z"/>
<path d="M4601 5545 c-17 -19 -28 -35 -23 -35 9 0 44 36 56 58 13 22 0 13 -33
-23z"/>
<path d="M3581 5218 c-7 -11 -10 -22 -8 -25 7 -7 47 16 47 26 0 19 -27 18 -39
-1z"/>
<path d="M3626 5203 c-3 -3 -6 -11 -6 -17 0 -6 4 -5 9 3 6 10 11 5 17 -20 4
-19 7 -37 6 -41 -1 -5 3 -8 8 -8 6 0 10 -6 10 -13 0 -7 5 -18 12 -25 9 -9 16
-8 30 5 22 20 24 10 2 -12 -13 -13 -14 -21 -6 -41 11 -22 10 -23 -7 -12 -11 6
-18 20 -16 30 2 10 0 18 -5 18 -20 0 -19 -20 1 -55 18 -30 20 -38 8 -45 -7 -5
-11 -12 -7 -15 3 -4 19 10 34 31 20 25 25 39 16 42 -6 2 -12 8 -12 13 0 6 4 8
10 4 21 -13 2 64 -24 95 -35 43 -72 71 -80 63z m74 -67 c0 -3 -4 -8 -10 -11
-5 -3 -10 -1 -10 4 0 6 5 11 10 11 6 0 10 -2 10 -4z"/>
<path d="M3070 5141 c0 -5 5 -13 10 -16 6 -3 10 -2 10 4 0 5 -4 13 -10 16 -5
3 -10 2 -10 -4z"/>
<path d="M3070 5099 c0 -5 5 -7 10 -4 6 3 10 8 10 11 0 2 -4 4 -10 4 -5 0 -10
-5 -10 -11z"/>
<path d="M4525 5369 c-3 -4 -12 -6 -20 -2 -8 3 -15 1 -15 -4 0 -5 -7 -10 -15
-10 -8 0 -15 4 -15 9 0 13 -17 9 -33 -7 -8 -8 -17 -11 -21 -8 -3 4 -6 2 -6 -3
0 -5 -18 -10 -41 -11 -23 -1 -49 -9 -58 -17 -10 -9 -20 -13 -24 -10 -3 4 -13
-1 -22 -10 -20 -20 -14 -20 28 -2 29 12 202 48 301 62 21 3 36 7 35 8 -10 9
-90 13 -94 5z"/>
<path d="M4965 5351 c-3 -6 -11 -9 -16 -6 -5 4 -12 -2 -16 -12 -12 -32 -29
-43 -43 -30 -10 9 -11 9 -6 0 4 -8 2 -13 -5 -13 -7 0 -21 -7 -31 -17 -13 -12
-18 -13 -18 -3 0 7 -3 10 -6 7 -4 -4 -1 -13 6 -22 9 -11 17 -12 31 -4 11 5 16
15 13 21 -4 7 -3 8 4 4 15 -9 73 34 65 47 -3 6 -1 7 4 4 12 -7 39 20 30 29 -3
3 -8 0 -12 -5z"/>
<path d="M4797 5260 c12 -13 6 -43 -7 -35 -5 3 -15 -1 -23 -10 -8 -8 -20 -16
-27 -17 -15 -4 -60 -41 -55 -46 2 -3 16 5 32 16 15 10 47 29 71 41 48 25 51
31 20 50 -16 9 -19 9 -11 1z"/>
<path d="M4588 5100 c-7 -11 -18 -20 -25 -20 -6 0 -15 -4 -18 -10 -8 -14 25
-1 53 21 13 10 18 20 13 24 -6 3 -16 -3 -23 -15z"/>
<path d="M4030 3700 c0 -24 369 -107 626 -140 259 -33 723 -50 849 -30 32 5
-42 8 -205 9 -397 2 -638 24 -945 86 -93 19 -205 45 -247 59 -43 13 -78 21
-78 16z"/>
<path d="M3553 5113 c-15 -5 -17 -23 -4 -23 5 0 11 7 15 15 3 8 4 15 3 14 -1
0 -8 -3 -14 -6z"/>
<path d="M2605 5101 c-3 -5 -1 -12 5 -16 5 -3 10 1 10 9 0 18 -6 21 -15 7z"/>
<path d="M2625 5030 c3 -5 8 -10 11 -10 2 0 4 5 4 10 0 6 -5 10 -11 10 -5 0
-7 -4 -4 -10z"/>
<path d="M2745 5010 c-3 -5 -1 -10 4 -10 6 0 11 5 11 10 0 6 -2 10 -4 10 -3 0
-8 -4 -11 -10z"/>
<path d="M2831 4888 c-1 -20 14 -24 25 -6 4 6 3 8 -4 4 -5 -3 -13 0 -15 6 -3
8 -6 6 -6 -4z"/>
<path d="M2930 4726 c0 -2 7 -9 15 -16 9 -7 15 -8 15 -2 0 5 -7 12 -15 16 -8
3 -15 4 -15 2z"/>
<path d="M3290 4675 c-8 -9 -8 -15 -2 -15 12 0 26 19 19 26 -2 2 -10 -2 -17
-11z"/>
<path d="M5335 4980 c-4 -6 -11 -7 -17 -4 -7 4 -8 2 -4 -5 6 -9 11 -9 22 0 14
11 18 19 10 19 -3 0 -8 -5 -11 -10z"/>
<path d="M5355 4972 c-8 -22 12 -39 27 -24 8 8 15 8 24 1 7 -5 14 -6 17 -2 3
4 -10 15 -29 24 -29 14 -34 14 -39 1z m25 -12 c0 -5 -4 -10 -10 -10 -5 0 -10
5 -10 10 0 6 5 10 10 10 6 0 10 -4 10 -10z"/>
<path d="M5255 4960 c-3 -5 -1 -10 5 -10 6 0 8 -5 4 -12 -4 -7 -3 -8 4 -4 6 4
9 13 5 21 -6 18 -10 19 -18 5z"/>
<path d="M5299 4956 c-3 -3 -4 -19 -1 -35 5 -36 30 -32 30 4 0 14 -4 22 -8 20
-5 -3 -10 0 -12 6 -2 5 -6 8 -9 5z"/>
<path d="M5233 4920 c1 -11 8 -20 15 -20 11 0 12 3 3 13 -6 8 -8 17 -4 20 3 4
1 7 -5 7 -6 0 -10 -9 -9 -20z"/>
<path d="M5435 4931 c6 -11 4 -13 -10 -7 -15 5 -16 4 -5 -9 7 -8 16 -15 20
-15 10 0 7 27 -5 37 -4 5 -5 2 0 -6z"/>
<path d="M5460 4921 c0 -25 6 -27 13 -6 4 8 2 17 -3 20 -6 4 -10 -3 -10 -14z"/>
<path d="M5204 4915 c-4 -8 -10 -12 -15 -9 -5 3 -9 0 -9 -5 0 -6 -7 -11 -15
-11 -17 0 -19 -9 -5 -30 7 -11 10 -11 10 -2 0 7 4 10 10 7 5 -3 7 0 4 9 -4 11
0 13 14 9 11 -2 23 0 26 6 4 6 3 11 -3 11 -6 0 -8 7 -5 15 4 8 3 15 0 15 -4 0
-9 -7 -12 -15z"/>
<path d="M5363 4905 c0 -10 6 -14 14 -10 8 3 17 5 19 5 3 0 2 5 -1 10 -10 16
-32 12 -32 -5z"/>
<path d="M5503 4888 c0 -13 1 -17 4 -10 7 17 33 15 33 -4 0 -8 -4 -13 -8 -10
-5 3 -8 -5 -7 -17 3 -32 -4 -40 -22 -25 -9 7 -31 14 -48 14 -32 1 -32 1 -14
-17 20 -20 34 -26 25 -10 -3 5 1 11 9 15 18 6 19 2 4 -26 -9 -16 -8 -19 3 -15
7 2 12 8 11 13 -3 16 71 10 79 -6 5 -10 7 -7 8 10 l1 25 23 -27 24 -26 11 26
c11 22 10 24 -3 13 -10 -8 -16 -9 -21 -1 -3 5 -2 10 4 10 6 0 7 7 4 17 -4 11
-3 14 5 9 7 -4 12 -5 12 -2 0 4 -126 66 -134 66 -1 0 -2 -10 -3 -22z m70 -31
c6 4 8 0 5 -9 -4 -8 0 -15 8 -15 7 0 11 4 8 9 -3 4 0 8 5 8 6 0 11 -6 11 -14
0 -8 -8 -14 -17 -14 -10 0 -27 -3 -38 -8 -18 -7 -19 -6 -5 11 14 17 13 18 -2
12 -15 -5 -16 -4 -5 13 6 11 13 16 15 10 2 -6 9 -7 15 -3z"/>
<path d="M5400 4890 c-9 -6 -10 -10 -3 -10 6 0 15 5 18 10 8 12 4 12 -15 0z"/>
<path d="M5235 4880 c-3 -5 1 -10 9 -10 8 0 18 5 21 10 3 6 -1 10 -9 10 -8 0
-18 -4 -21 -10z"/>
<path d="M5314 4875 c-4 -9 -14 -13 -23 -11 -16 6 -50 -9 -41 -17 3 -3 15 -8
27 -11 18 -6 25 -1 38 23 8 17 13 31 10 31 -3 0 -8 -7 -11 -15z"/>
<path d="M5370 4870 c13 -8 13 -10 -2 -10 -22 0 -24 -33 -3 -50 9 -7 14 -19
11 -26 -3 -7 1 -15 8 -17 18 -7 9 28 -10 44 -19 16 -18 43 2 35 9 -3 12 -2 9
5 -4 6 3 7 22 3 19 -4 25 -3 18 3 -5 6 -23 13 -40 17 -22 5 -26 4 -15 -4z"/>
<path d="M5440 4871 c0 -5 5 -13 10 -16 6 -3 10 -2 10 4 0 5 -4 13 -10 16 -5
3 -10 2 -10 -4z"/>
<path d="M5130 4862 c0 -5 -9 -12 -20 -15 -11 -3 -19 -11 -18 -17 2 -7 -3 -15
-11 -18 -8 -3 -11 0 -7 7 4 6 2 11 -4 11 -20 0 -6 -20 30 -43 23 -14 31 -16
23 -6 -7 9 -10 19 -6 22 3 4 2 7 -4 7 -5 0 -10 7 -10 15 0 8 8 15 18 15 21 0
34 16 19 25 -5 3 -10 2 -10 -3z"/>
<path d="M5200 4860 c0 -5 5 -10 11 -10 5 0 8 -4 4 -9 -3 -5 -1 -12 5 -16 15
-9 2 -25 -21 -25 -24 0 -25 -15 -1 -17 25 -2 49 36 30 48 -10 7 -10 9 0 9 6 0
12 5 12 11 0 5 -4 7 -10 4 -5 -3 -10 -1 -10 4 0 6 -4 11 -10 11 -5 0 -10 -4
-10 -10z"/>
<path d="M5149 4833 c-1 -5 -1 -12 0 -17 1 -5 -2 -12 -8 -15 -6 -4 -7 -12 -1
-21 7 -11 10 -12 10 -2 0 7 4 11 9 8 5 -3 11 3 14 14 3 11 0 18 -7 17 -6 -1
-10 4 -8 11 1 6 0 12 -3 12 -3 0 -6 -3 -6 -7z"/>
<path d="M5657 4825 c3 -8 9 -12 14 -9 12 7 11 11 -5 17 -10 4 -13 1 -9 -8z"/>
<path d="M5260 4814 c8 -10 15 -20 16 -22 1 -2 4 1 7 5 3 5 -4 15 -16 23 -21
12 -21 12 -7 -6z"/>
<path d="M5325 4820 c-3 -5 -1 -10 4 -10 6 0 11 5 11 10 0 6 -2 10 -4 10 -3 0
-8 -4 -11 -10z"/>
<path d="M5404 4806 c-3 -8 0 -24 6 -35 6 -12 8 -27 4 -33 -4 -6 -3 -8 4 -4 6
3 15 -2 21 -11 6 -10 11 -13 11 -6 0 6 -5 15 -12 19 -8 5 -6 10 8 15 17 7 16
8 -5 8 -13 1 -21 4 -18 7 3 4 2 15 -3 25 -7 12 -6 19 3 22 9 4 9 6 -1 6 -7 1
-15 -5 -18 -13z"/>
<path d="M5701 4808 c-1 -10 6 -18 14 -18 8 0 15 5 15 11 0 5 -4 8 -9 5 -5 -4
-12 0 -14 6 -3 8 -6 6 -6 -4z"/>
<path d="M5013 4798 c-4 -7 -8 -16 -8 -20 0 -17 -15 -19 -15 -2 0 16 -2 16
-10 4 -6 -9 -5 -19 2 -28 10 -11 13 -10 22 5 6 10 11 22 11 26 0 4 7 12 15 17
9 6 10 10 3 10 -6 0 -15 -6 -20 -12z"/>
<path d="M5662 4803 c-7 -2 -17 -13 -22 -24 -9 -15 -6 -24 11 -42 12 -12 19
-17 15 -10 -3 6 -1 15 4 18 7 5 5 12 -7 22 -17 13 -16 13 4 4 27 -14 43 -14
43 -1 0 6 -10 10 -22 11 -13 0 -17 3 -10 6 6 2 12 9 12 14 0 10 -8 10 -28 2z"/>
<path d="M5046 4784 c-9 -23 -8 -24 15 -24 11 0 18 -4 14 -9 -3 -5 0 -13 6
-17 7 -4 9 -3 5 4 -3 6 2 13 11 15 16 4 16 5 -1 6 -12 1 -16 6 -12 17 6 15 4
15 -11 3 -9 -8 -14 -9 -10 -2 4 6 3 14 -2 17 -5 3 -12 -1 -15 -10z"/>
<path d="M5237 4793 c-14 -13 -7 -42 8 -37 8 4 15 10 15 16 0 5 -4 6 -10 3 -5
-3 -10 -2 -10 4 0 5 6 12 13 14 6 3 7 6 1 6 -6 1 -14 -2 -17 -6z"/>
<path d="M5327 4778 c3 -13 10 -28 15 -35 6 -8 2 -11 -16 -9 -14 2 -23 -1 -20
-6 3 -5 12 -7 20 -4 7 3 18 -3 23 -12 9 -14 10 -13 11 9 0 14 -5 30 -12 37 -9
9 -9 12 0 12 7 0 12 5 12 11 0 5 -4 7 -10 4 -5 -3 -10 -1 -10 4 0 6 -4 11 -9
11 -5 0 -7 -10 -4 -22z"/>
<path d="M5750 4785 c11 -13 10 -14 -2 -10 -9 4 -27 -4 -42 -18 -21 -20 -23
-25 -9 -23 10 0 21 9 25 18 4 10 14 15 22 12 8 -3 17 0 21 6 7 12 45 -20 45
-38 0 -5 7 -15 15 -22 12 -10 15 -10 15 3 0 8 6 17 13 20 6 2 9 8 4 12 -4 5
-13 0 -21 -10 -12 -17 -13 -17 -19 6 -3 13 -19 32 -36 42 -36 21 -47 22 -31 2z"/>
<path d="M5503 4776 c4 -10 1 -13 -9 -9 -7 3 -14 0 -14 -6 0 -6 11 -10 24 -9
17 2 22 6 16 14 -6 6 -7 14 -3 17 3 4 1 7 -6 7 -7 0 -11 -7 -8 -14z"/>
<path d="M5170 4759 c0 -5 5 -7 10 -4 6 3 10 8 10 11 0 2 -4 4 -10 4 -5 0 -10
-5 -10 -11z"/>
<path d="M5199 4754 c-7 -9 -14 -31 -14 -49 0 -28 2 -31 17 -21 22 13 30 33
18 41 -6 4 -10 -2 -11 -12 0 -16 -1 -16 -8 2 -5 12 -3 25 6 33 13 13 17 22 9
22 -2 0 -10 -7 -17 -16z"/>
<path d="M5300 4760 c0 -5 5 -10 11 -10 5 0 7 5 4 10 -3 6 -8 10 -11 10 -2 0
-4 -4 -4 -10z"/>
<path d="M5544 4758 c-5 -7 -2 -9 8 -5 9 3 21 0 27 -6 8 -8 11 -8 11 0 0 6 -7
14 -16 17 -21 8 -22 8 -30 -6z"/>
<path d="M4895 4750 c-3 -6 1 -7 9 -4 9 3 16 1 16 -5 0 -6 7 -8 17 -4 15 6 15
7 -3 14 -27 11 -32 10 -39 -1z"/>
<path d="M5730 4745 c-1 -11 -2 -24 -1 -28 1 -5 -8 -5 -20 -2 -16 6 -20 3 -17
-11 1 -9 10 -20 18 -22 13 -5 13 -3 0 13 -8 11 -10 16 -3 11 22 -13 40 7 32
34 -6 21 -7 22 -9 5z"/>
<path d="M4540 4740 c0 -6 7 -10 15 -10 8 0 15 2 15 4 0 2 -7 6 -15 10 -8 3
-15 1 -15 -4z"/>
<path d="M4594 4743 c4 -7 2 -13 -4 -13 -6 0 -9 -3 -6 -8 7 -12 -22 -45 -33
-37 -6 3 -11 1 -11 -6 0 -6 8 -9 20 -6 12 3 20 0 20 -8 0 -7 7 -15 15 -19 13
-5 13 -2 -1 19 -14 21 -14 26 -2 30 15 6 17 39 3 52 -4 5 -5 2 -1 -4z"/>
<path d="M4776 4718 c10 -20 19 -25 35 -21 19 5 21 3 17 -15 -4 -12 -2 -19 3
-16 5 3 8 21 6 39 -3 19 1 36 7 38 6 2 -10 3 -35 3 l-47 -1 14 -27z m50 0 c4
-7 4 -10 -1 -6 -4 4 -14 3 -22 -3 -10 -9 -13 -8 -13 5 0 19 26 22 36 4z"/>
<path d="M4863 4743 c4 -3 1 -13 -6 -22 -11 -14 -10 -14 6 -2 20 15 22 31 5
31 -6 0 -8 -3 -5 -7z"/>
<path d="M4970 4735 c14 -17 50 -20 50 -5 0 5 -6 7 -14 4 -8 -3 -17 -1 -21 5
-3 6 -11 11 -17 11 -7 0 -6 -6 2 -15z"/>
<path d="M5143 4728 c-4 -13 -8 -29 -8 -37 0 -8 -6 -16 -12 -18 -9 -3 -12 5
-9 26 2 17 -1 28 -6 25 -5 -3 -7 -13 -4 -21 4 -11 2 -13 -9 -9 -52 21 -51 21
-36 3 7 -9 18 -17 23 -17 5 0 16 -7 24 -15 20 -20 34 -19 35 3 0 9 3 12 5 5 3
-7 0 -21 -6 -32 -13 -25 -42 -29 -33 -4 4 11 3 14 -5 9 -21 -13 -14 -38 11
-36 39 4 55 0 35 -8 -17 -7 -16 -8 2 -20 18 -11 20 -10 20 14 0 16 4 23 12 18
6 -4 8 -3 5 4 -4 5 -15 9 -25 7 -9 -1 -11 0 -4 2 8 3 10 14 6 30 -4 16 -2 28
7 34 12 8 11 11 -3 19 -9 6 -15 17 -12 25 4 8 4 15 1 15 -3 0 -9 -10 -14 -22z
m17 -28 c0 -5 -4 -10 -10 -10 -5 0 -10 5 -10 10 0 6 5 10 10 10 6 0 10 -4 10
-10z"/>
<path d="M5390 4741 c0 -7 -4 -9 -10 -6 -5 3 -10 1 -10 -4 0 -6 4 -11 9 -11
13 0 25 20 17 27 -3 4 -6 1 -6 -6z"/>
<path d="M5758 4743 c6 -2 9 -10 6 -15 -4 -7 -2 -8 4 -4 18 11 14 26 -5 25
-11 0 -13 -3 -5 -6z"/>
<path d="M4430 4732 c0 -4 16 -6 35 -4 19 2 35 6 35 8 0 2 -16 4 -35 4 -19 0
-35 -4 -35 -8z"/>
<path d="M5520 4725 c0 -5 4 -16 8 -23 6 -9 12 -6 20 12 10 22 9 25 -9 23 -10
-1 -19 -6 -19 -12z"/>
<path d="M4386 4718 c3 -4 11 -5 19 -1 21 7 19 12 -4 10 -11 0 -18 -5 -15 -9z"/>
<path d="M4705 4720 c-3 -6 1 -7 9 -4 18 7 21 14 7 14 -6 0 -13 -4 -16 -10z"/>
<path d="M5026 4715 c-3 -8 -1 -15 4 -15 6 0 10 7 10 15 0 8 -2 15 -4 15 -2 0
-6 -7 -10 -15z"/>
<path d="M5265 4720 c3 -5 11 -10 16 -10 6 0 7 5 4 10 -3 6 -11 10 -16 10 -6
0 -7 -4 -4 -10z"/>
<path d="M5560 4709 c-10 -17 -8 -25 11 -45 23 -25 41 -25 20 -1 -8 11 -6 18
9 32 22 20 28 8 8 -15 -11 -12 -10 -12 5 0 16 12 20 12 28 -1 6 -10 8 -7 7 13
-1 15 -6 24 -10 22 -4 -3 -8 0 -8 7 0 10 -3 10 -12 1 -7 -7 -17 -8 -29 -1 -14
7 -21 5 -29 -12z m40 -4 c0 -2 -9 -9 -20 -15 -16 -9 -18 -8 -14 5 5 13 34 22
34 10z"/>
<path d="M5898 4723 c6 -2 9 -9 6 -14 -3 -6 -12 -5 -22 3 -9 7 -5 -2 8 -21 23
-33 14 -34 -23 -3 -16 15 -17 14 -11 -4 6 -15 4 -17 -6 -7 -10 9 -17 10 -27 2
-18 -16 -16 -27 7 -39 24 -13 26 -7 4 14 -14 14 -13 16 10 14 19 -2 25 -7 22
-23 -2 -11 -1 -14 1 -7 3 8 13 12 24 9 10 -3 19 -1 19 5 0 6 7 8 15 4 11 -4
15 1 15 17 0 18 -2 19 -10 7 -7 -11 -10 -11 -10 -2 0 7 -4 10 -10 7 -5 -3 -10
-2 -10 4 0 5 5 13 10 16 13 8 3 25 -13 24 -9 0 -8 -2 1 -6z"/>
<path d="M4670 4705 c-7 -8 -17 -12 -24 -9 -6 3 -1 -3 12 -13 16 -13 19 -22
12 -29 -8 -8 -7 -16 4 -26 8 -9 13 -18 11 -20 -3 -3 2 -5 9 -5 18 0 16 18 -4
34 -13 11 -12 12 5 7 16 -5 17 -4 6 4 -12 8 -12 13 -2 25 7 9 8 18 2 21 -5 3
-11 0 -14 -6 -2 -7 -8 -10 -12 -6 -4 4 -2 14 5 23 7 8 10 15 7 15 -2 0 -10 -7
-17 -15z"/>
<path d="M4900 4706 l-25 -14 26 1 c14 1 26 8 26 15 0 6 -1 12 -1 12 -1 -1
-12 -7 -26 -14z"/>
<path d="M4971 4703 c0 -6 3 -23 9 -37 7 -19 6 -26 -2 -26 -18 0 -3 -10 22
-15 18 -3 21 -2 12 7 -7 7 -12 20 -12 30 0 10 -4 18 -9 18 -5 0 -12 8 -14 18
-3 9 -5 12 -6 5z"/>
<path d="M5403 4703 c9 -2 17 -9 17 -14 0 -6 5 -7 10 -4 6 3 10 1 10 -6 0 -7
3 -9 7 -5 10 10 -26 36 -46 35 -13 -1 -12 -2 2 -6z"/>
<path d="M5468 4669 c3 -22 -1 -46 -7 -52 -7 -7 -9 -3 -5 16 2 15 0 27 -5 27
-5 0 -16 3 -25 6 -11 4 -16 1 -16 -11 0 -11 6 -15 19 -10 15 4 18 1 14 -18 -4
-18 2 -26 23 -36 23 -10 26 -10 16 2 -17 20 -4 51 14 36 8 -6 12 -15 9 -19 -3
-5 -1 -11 4 -14 5 -3 7 -15 4 -26 -4 -16 -8 -18 -19 -9 -8 7 -17 9 -21 5 -3
-3 -1 -6 6 -6 7 0 9 -5 6 -10 -4 -6 -3 -9 2 -8 4 2 8 -1 8 -7 0 -5 -3 -9 -7
-7 -5 1 -8 -2 -8 -8 0 -5 4 -10 9 -10 24 0 43 62 27 89 -7 11 -5 13 8 8 13 -5
19 -1 24 15 5 21 6 21 14 2 8 -18 8 -18 5 0 -1 12 -11 20 -25 21 -26 2 -55 25
-31 25 12 0 12 2 -1 10 -11 7 -17 4 -23 -8 -5 -12 -6 -8 -4 11 3 16 0 27 -7
27 -7 0 -10 -15 -8 -41z m72 -50 c0 -4 -7 -6 -15 -3 -8 4 -15 10 -15 15 0 4 7
6 15 3 8 -4 15 -10 15 -15z"/>
<path d="M5743 4703 c-21 -8 -15 -29 8 -30 18 -2 19 0 7 14 -8 11 -8 14 -1 10
6 -4 14 -3 18 3 6 10 -11 12 -32 3z"/>
<path d="M5370 4679 c0 -13 -4 -19 -8 -13 -13 19 -40 23 -53 7 -12 -13 -14
-13 -21 4 -7 17 -8 16 -5 -2 1 -12 11 -21 26 -23 18 -3 22 0 18 12 -6 14 -3
14 20 -1 14 -9 21 -19 14 -21 -6 -2 -9 -8 -5 -13 3 -5 1 -9 -5 -9 -5 0 -12 6
-14 13 -4 9 -8 8 -16 -3 -8 -12 -6 -16 9 -18 11 -2 20 -10 20 -18 0 -8 4 -14
9 -14 5 0 18 -3 28 -6 17 -5 17 -5 1 6 -22 14 -24 34 -2 26 8 -3 12 -2 9 4 -3
6 4 10 17 10 18 0 20 2 8 10 -9 5 -19 5 -27 -2 -7 -6 -13 -9 -14 -7 -6 32 -5
40 8 47 12 7 12 10 -1 21 -14 12 -16 10 -16 -10z"/>
<path d="M5795 4690 c-3 -5 -1 -10 4 -10 6 0 11 5 11 10 0 6 -2 10 -4 10 -3 0
-8 -4 -11 -10z"/>
<path d="M5970 4685 c0 -17 -2 -18 -11 -5 -9 12 -10 11 -6 -7 5 -21 -14 -49
-25 -37 -3 2 -8 -2 -11 -11 -7 -17 8 -21 18 -5 4 6 11 7 17 4 7 -4 8 -2 4 4
-4 7 -3 12 3 12 18 0 34 41 22 53 -8 8 -11 6 -11 -8z"/>
<path d="M4350 4670 c8 -5 20 -10 25 -10 6 0 3 5 -5 10 -8 5 -19 10 -25 10 -5
0 -3 -5 5 -10z"/>
<path d="M4720 4668 c0 -11 12 -10 30 2 12 7 10 9 -8 7 -12 0 -22 -5 -22 -9z"/>
<path d="M4866 4667 c-16 -12 -16 -14 -3 -14 9 0 18 6 21 14 3 7 4 13 3 13 -2
0 -11 -6 -21 -13z"/>
<path d="M5040 4666 c0 -8 5 -18 12 -22 7 -4 8 -3 4 4 -4 7 -2 12 3 12 6 0 11
5 11 10 0 6 -7 10 -15 10 -8 0 -15 -6 -15 -14z"/>
<path d="M6010 4676 c0 -2 7 -7 16 -10 8 -3 12 -2 9 4 -6 10 -25 14 -25 6z"/>
<path d="M4480 4650 c-6 -11 -7 -20 -2 -20 6 0 12 9 15 20 3 11 3 20 1 20 -2
0 -8 -9 -14 -20z"/>
<path d="M4760 4660 c-8 -5 -10 -10 -5 -10 6 0 17 5 25 10 8 5 11 10 5 10 -5
0 -17 -5 -25 -10z"/>
<path d="M5076 4653 c-6 -14 -5 -15 5 -6 7 7 10 15 7 18 -3 3 -9 -2 -12 -12z"/>
<path d="M5190 4655 c-14 -16 -10 -18 14 -9 9 3 16 10 16 15 0 14 -16 11 -30
-6z"/>
<path d="M5650 4655 c-16 -19 -1 -19 24 0 16 12 17 15 4 15 -8 0 -21 -7 -28
-15z"/>
<path d="M4553 4652 c-9 -6 -6 -11 7 -20 21 -13 26 -6 12 15 -4 7 -13 9 -19 5z"/>
<path d="M4795 4647 c-15 -18 -17 -45 -5 -65 8 -14 9 -12 4 11 -5 22 -3 26 10
21 9 -3 16 -1 16 6 0 6 -5 8 -11 4 -8 -4 -9 0 -4 15 7 24 5 26 -10 8z"/>
<path d="M5755 4650 c3 -5 8 -10 11 -10 2 0 4 5 4 10 0 6 -5 10 -11 10 -5 0
-7 -4 -4 -10z"/>
<path d="M6065 4651 c3 -5 1 -12 -4 -15 -5 -4 -12 -2 -16 4 -10 15 -32 12 -39
-6 -6 -16 18 -43 39 -43 6 -1 -1 8 -14 18 -20 16 -21 19 -7 24 13 5 21 -2 32
-26 14 -30 15 -30 11 -5 -2 17 1 29 9 32 8 3 14 -1 14 -9 0 -8 4 -15 10 -15 5
0 7 7 4 15 -5 11 -1 14 12 9 15 -5 16 -4 4 4 -8 6 -18 8 -22 6 -4 -3 -8 0 -8
5 0 6 -7 11 -16 11 -8 0 -13 -4 -9 -9z"/>
<path d="M4303 4635 c-3 -9 -3 -18 -1 -21 3 -3 8 4 11 16 6 23 -1 27 -10 5z"/>
<path d="M5730 4639 c0 -5 -4 -7 -10 -4 -5 3 -10 2 -10 -2 0 -5 9 -14 20 -21
12 -7 20 -8 20 -2 0 5 -4 10 -10 10 -5 0 -7 7 -4 15 4 8 3 15 0 15 -3 0 -6 -5
-6 -11z"/>
<path d="M5256 4627 c3 -10 9 -15 12 -12 3 3 0 11 -7 18 -10 9 -11 8 -5 -6z"/>
<path d="M5283 4625 c0 -11 4 -12 14 -4 7 6 13 13 13 15 0 2 -6 4 -13 4 -8 0
-14 -7 -14 -15z"/>
<path d="M5605 4630 c-4 -6 -11 -7 -17 -4 -7 5 -8 2 -3 -5 5 -9 11 -9 17 -3 6
6 17 8 26 5 10 -4 13 -2 8 5 -9 15 -23 15 -31 2z"/>
<path d="M5777 4633 c-4 -3 -7 -13 -6 -22 0 -12 3 -11 9 4 8 19 9 19 9 -2 1
-12 -2 -23 -6 -26 -5 -2 -2 -2 6 0 7 2 20 -2 27 -8 11 -9 14 -8 14 5 0 9 -4
15 -9 14 -5 -2 -8 2 -7 7 0 6 4 9 9 8 4 -2 7 2 7 8 0 6 -7 9 -15 5 -8 -3 -15
-1 -15 4 0 11 -13 13 -23 3z"/>
<path d="M5883 4619 c-2 -23 3 -25 10 -4 4 8 3 16 -1 19 -4 3 -9 -4 -9 -15z"/>
<path d="M5971 4622 c-13 -25 -14 -32 -2 -32 9 0 23 41 16 48 -2 2 -8 -5 -14
-16z"/>
<path d="M4835 4620 c3 -5 8 -10 11 -10 2 0 4 5 4 10 0 6 -5 10 -11 10 -5 0
-7 -4 -4 -10z"/>
<path d="M5022 4601 c-8 -24 -15 -29 -34 -25 -23 5 -23 4 1 -6 17 -8 26 -7 31
0 4 6 13 10 20 8 7 -2 15 4 17 12 4 12 3 12 -5 1 -12 -17 -24 1 -16 23 3 9 4
16 1 16 -3 0 -10 -13 -15 -29z"/>
<path d="M5200 4620 c0 -5 5 -10 10 -10 6 0 10 5 10 10 0 6 -4 10 -10 10 -5 0
-10 -4 -10 -10z"/>
<path d="M5658 4588 c2 -24 0 -38 -5 -33 -4 6 -16 16 -26 24 -16 12 -17 12
-10 -5 6 -16 4 -17 -9 -6 -13 10 -17 10 -22 -4 -9 -23 -8 -26 7 -17 18 11 47
14 47 4 0 -5 6 -11 13 -14 9 -3 14 7 16 36 1 22 4 44 7 49 3 4 -1 8 -8 8 -10
0 -13 -12 -10 -42z"/>
<path d="M5686 4614 c-3 -8 -2 -13 3 -9 5 3 11 0 13 -7 3 -7 7 -8 10 -3 3 6 0
15 -7 22 -10 10 -14 9 -19 -3z"/>
<path d="M6137 4623 c-4 -3 -7 -11 -7 -17 0 -6 5 -5 12 2 6 6 9 14 7 17 -3 3
-9 2 -12 -2z"/>
<path d="M4336 4605 c-4 -10 -2 -14 5 -9 6 4 15 0 21 -7 7 -11 8 -10 6 5 -4
25 -24 32 -32 11z"/>
<path d="M4380 4616 c0 -2 7 -7 16 -10 8 -3 12 -2 9 4 -6 10 -25 14 -25 6z"/>
<path d="M4735 4599 c-4 -6 -5 -12 -2 -15 2 -3 7 2 10 11 7 17 1 20 -8 4z"/>
<path d="M4946 4602 c-2 -4 -1 -14 3 -21 6 -10 10 -9 14 3 6 16 -8 32 -17 18z"/>
<path d="M4980 4606 c0 -2 7 -6 15 -10 8 -3 15 -1 15 4 0 6 -7 10 -15 10 -8 0
-15 -2 -15 -4z"/>
<path d="M6196 4594 c-8 -22 -4 -25 11 -9 7 8 9 16 4 19 -5 3 -12 -1 -15 -10z"/>
<path d="M4200 4585 c-7 -9 -6 -14 4 -18 10 -4 13 -1 9 9 -4 10 0 12 11 8 9
-3 16 -2 16 3 0 14 -29 12 -40 -2z"/>
<path d="M4571 4587 c9 -7 14 -19 12 -27 -4 -12 -3 -12 5 -2 5 8 13 13 18 12
5 -1 10 4 12 12 2 9 0 8 -7 -2 -9 -12 -11 -12 -17 3 -3 9 -14 17 -23 17 -15
-1 -15 -2 0 -13z"/>
<path d="M4915 4590 c3 -5 8 -10 11 -10 2 0 4 5 4 10 0 6 -5 10 -11 10 -5 0
-7 -4 -4 -10z"/>
<path d="M5245 4591 c-13 -5 -2 -8 32 -7 28 1 54 4 57 7 9 9 -66 9 -89 0z"/>
<path d="M5543 4581 c-9 -14 -6 -17 14 -19 23 -2 24 0 12 15 -8 9 -9 14 -4 11
6 -4 17 -3 24 1 9 6 5 9 -11 9 -14 0 -29 -8 -35 -17z"/>
<path d="M5917 4584 c2 -7 11 -10 19 -7 19 7 18 10 -5 16 -13 3 -18 1 -14 -9z"/>
<path d="M6000 4590 c0 -5 5 -10 10 -10 6 0 10 5 10 10 0 6 -4 10 -10 10 -5 0
-10 -4 -10 -10z"/>
<path d="M6234 4586 c4 -13 2 -17 -8 -13 -10 4 -13 1 -9 -9 5 -14 7 -14 21 0
14 13 14 18 3 28 -12 11 -13 10 -7 -6z"/>
<path d="M4375 4570 c-10 -11 -22 -17 -28 -13 -6 4 -7 1 -3 -6 6 -9 12 -9 24
2 10 8 24 16 32 19 9 3 10 7 3 11 -6 4 -18 -2 -28 -13z"/>
<path d="M4518 4583 c7 -3 16 -2 19 1 4 3 -2 6 -13 5 -11 0 -14 -3 -6 -6z"/>
<path d="M5720 4580 c-18 -12 -2 -12 25 0 13 6 15 9 5 9 -8 0 -22 -4 -30 -9z"/>
<path d="M5887 4575 c3 -8 9 -12 14 -9 12 7 11 11 -5 17 -10 4 -13 1 -9 -8z"/>
<path d="M4555 4570 c3 -5 8 -10 11 -10 2 0 4 5 4 10 0 6 -5 10 -11 10 -5 0
-7 -4 -4 -10z"/>
<path d="M4656 4568 c3 -5 10 -6 15 -3 13 9 11 12 -6 12 -8 0 -12 -4 -9 -9z"/>
<path d="M4712 4560 c14 -22 24 -19 15 5 -4 8 -11 15 -17 15 -6 0 -6 -7 2 -20z"/>
<path d="M4745 4570 c-8 -13 3 -30 18 -29 9 0 9 2 0 5 -7 3 -9 12 -6 20 6 16
-3 19 -12 4z"/>
<path d="M5200 4576 c0 -2 7 -7 16 -10 8 -3 12 -2 9 4 -6 10 -25 14 -25 6z"/>
<path d="M5255 4569 c-17 -8 -16 -9 7 -6 15 2 33 0 40 -4 10 -7 10 -9 1 -9 -7
0 -14 -10 -14 -22 -1 -18 -2 -19 -6 -5 -3 10 -12 17 -21 15 -9 -1 -24 2 -32 7
-12 8 -12 5 1 -15 17 -27 46 -35 85 -26 24 6 34 36 12 36 -6 0 -4 6 6 13 13
10 15 14 5 14 -8 0 -26 2 -39 5 -14 4 -34 2 -45 -3z m10 -49 c3 -5 1 -10 -4
-10 -6 0 -11 5 -11 10 0 6 2 10 4 10 3 0 8 -4 11 -10z"/>
<path d="M5860 4571 c0 -6 4 -13 10 -16 6 -3 7 1 4 9 -7 18 -14 21 -14 7z"/>
<path d="M5965 4570 c-4 -6 3 -10 14 -10 12 0 21 -5 21 -11 0 -6 7 -4 15 5 9
8 23 12 33 9 9 -3 14 -3 11 1 -11 12 -88 16 -94 6z"/>
<path d="M6110 4560 c0 -5 5 -10 11 -10 5 0 7 5 4 10 -3 6 -8 10 -11 10 -2 0
-4 -4 -4 -10z"/>
<path d="M6155 4560 c-16 -7 -17 -9 -3 -9 9 -1 20 4 23 9 7 11 7 11 -20 0z"/>
<path d="M6290 4561 c0 -6 5 -11 11 -11 5 0 8 -4 5 -9 -7 -10 52 -37 61 -27 3
3 1 6 -5 6 -6 0 -17 6 -24 13 -31 29 -48 39 -48 28z"/>
<path d="M4235 4550 c-3 -5 -2 -17 3 -26 7 -13 11 -14 17 -3 5 7 4 14 -3 17
-7 2 -10 8 -6 13 3 5 3 9 0 9 -3 0 -8 -4 -11 -10z"/>
<path d="M4810 4550 c-8 -5 -10 -10 -5 -10 6 0 17 5 25 10 8 5 11 10 5 10 -5
0 -17 -5 -25 -10z"/>
<path d="M4980 4551 c0 -7 -5 -9 -12 -5 -7 5 -8 3 -3 -5 5 -9 10 -10 18 -2 6
6 8 14 4 18 -4 3 -7 1 -7 -6z"/>
<path d="M5031 4543 c-1 -16 5 -23 17 -23 10 0 13 3 6 8 -6 4 -14 14 -17 22
-4 10 -6 8 -6 -7z"/>
<path d="M5163 4545 c0 -20 39 -16 44 5 4 13 3 13 -7 0 -9 -11 -13 -12 -17 -2
-7 17 -20 15 -20 -3z"/>
<path d="M5360 4540 c-6 -11 -7 -20 -3 -20 4 0 -1 -6 -11 -13 -17 -12 -15 -14
20 -14 22 0 31 2 22 4 -13 3 -17 12 -14 34 4 34 1 36 -14 9z"/>
<path d="M5390 4558 c0 -22 21 -58 32 -52 7 5 9 2 5 -8 -4 -11 1 -15 17 -15
l23 0 -24 23 c-13 13 -20 29 -17 38 3 9 1 16 -5 16 -6 0 -11 -6 -11 -12 0 -9
-4 -8 -10 2 -5 8 -10 12 -10 8z"/>
<path d="M5727 4539 c-4 -14 -10 -18 -19 -14 -11 7 -11 5 0 -6 11 -12 14 -12
22 1 10 15 13 40 6 40 -2 0 -6 -9 -9 -21z"/>
<path d="M5750 4545 c0 -9 6 -12 15 -9 8 4 15 7 15 9 0 2 -7 5 -15 9 -9 3 -15
0 -15 -9z"/>
<path d="M4375 4539 c-4 -6 -5 -12 -2 -15 2 -3 7 2 10 11 7 17 1 20 -8 4z"/>
<path d="M4649 4542 c9 -7 10 -11 2 -15 -7 -4 -8 -5 0 -3 15 2 13 20 -3 24
-10 3 -10 2 1 -6z"/>
<path d="M5000 4535 c0 -8 4 -15 10 -15 5 0 7 7 4 15 -4 8 -8 15 -10 15 -2 0
-4 -7 -4 -15z"/>
<path d="M5136 4535 c-9 -26 -7 -32 5 -12 6 10 9 21 6 23 -2 3 -7 -2 -11 -11z"/>
<path d="M5440 4543 c1 -18 18 -35 24 -24 4 6 2 11 -4 11 -6 0 -8 5 -5 10 3 6
1 10 -4 10 -6 0 -11 -3 -11 -7z"/>
<path d="M5531 4528 c-1 -16 -5 -28 -11 -28 -5 0 -10 -5 -10 -11 0 -5 4 -8 9
-5 5 4 11 3 14 -1 2 -5 2 -2 1 4 -2 8 5 12 18 10 12 -1 22 4 23 14 2 9 -3 16
-11 16 -11 0 -11 -3 -1 -15 10 -12 9 -14 -3 -10 -8 2 -17 15 -21 29 -7 24 -7
24 -8 -3z"/>
<path d="M5947 4529 c3 -10 9 -16 14 -13 13 8 11 21 -5 27 -10 4 -12 0 -9 -14z"/>
<path d="M6024 4539 c-3 -6 -14 -9 -23 -6 -12 3 -17 -3 -17 -27 -1 -29 -1 -29
9 -8 5 12 14 22 19 22 5 0 6 -6 2 -12 -4 -7 -4 -10 1 -6 4 4 13 3 20 -2 8 -7
11 -1 11 20 0 30 -9 39 -22 19z m16 -19 c0 -5 -2 -10 -4 -10 -3 0 -8 5 -11 10
-3 6 -1 10 4 10 6 0 11 -4 11 -10z"/>
<path d="M6091 4537 c-1 -12 5 -18 17 -16 41 4 45 0 28 -26 -19 -29 -21 -41
-3 -28 6 5 27 8 46 7 21 -2 29 1 22 6 -7 4 -22 5 -34 2 -17 -4 -19 -2 -13 21
5 20 2 27 -14 32 -11 3 -24 4 -29 1 -5 -4 -12 0 -14 6 -3 8 -6 5 -6 -5z"/>
<path d="M6175 4540 c-3 -5 -1 -10 4 -10 6 0 11 5 11 10 0 6 -2 10 -4 10 -3 0
-8 -4 -11 -10z"/>
<path d="M6240 4540 c0 -5 5 -10 10 -10 6 0 10 5 10 10 0 6 -4 10 -10 10 -5 0
-10 -4 -10 -10z"/>
<path d="M4420 4529 c0 -5 -4 -7 -10 -4 -5 3 -10 1 -10 -4 0 -16 16 -13 30 4
9 10 9 15 1 15 -6 0 -11 -5 -11 -11z"/>
<path d="M4580 4536 c0 -2 9 -6 20 -9 11 -3 18 -1 14 4 -5 9 -34 13 -34 5z"/>
<path d="M5085 4530 c-3 -5 -1 -10 4 -10 6 0 11 5 11 10 0 6 -2 10 -4 10 -3 0
-8 -4 -11 -10z"/>
<path d="M5595 4530 c-3 -5 -1 -10 4 -10 6 0 11 5 11 10 0 6 -2 10 -4 10 -3 0
-8 -4 -11 -10z"/>
<path d="M5850 4531 c0 -6 4 -13 10 -16 6 -3 7 1 4 9 -7 18 -14 21 -14 7z"/>
<path d="M6223 4523 c0 -11 7 -20 14 -20 10 0 10 4 1 16 -7 9 -13 18 -15 20
-1 2 -1 -5 0 -16z"/>
<path d="M5758 4523 c-10 -2 -18 -9 -18 -13 0 -6 11 -5 26 1 21 7 31 6 45 -7
23 -21 25 -12 3 10 -16 16 -24 17 -56 9z"/>
<path d="M4450 4516 c0 -2 7 -7 16 -10 8 -3 12 -2 9 4 -6 10 -25 14 -25 6z"/>
<path d="M5168 4513 c7 -3 16 -2 19 1 4 3 -2 6 -13 5 -11 0 -14 -3 -6 -6z"/>
<path d="M5638 4509 c-14 -8 -15 -14 -7 -27 14 -22 65 -28 72 -8 6 16 -19 30
-28 16 -4 -6 -1 -10 6 -10 7 0 10 -3 6 -6 -3 -3 -16 2 -29 11 -14 11 -16 15
-6 12 12 -4 15 -2 11 9 -3 7 -6 14 -7 14 0 0 -9 -5 -18 -11z"/>
<path d="M6078 4502 c9 -10 19 -17 21 -16 6 5 -20 34 -30 34 -5 0 -1 -8 9 -18z"/>
<path d="M4505 4499 c-4 -6 -5 -12 -2 -15 2 -3 7 2 10 11 7 17 1 20 -8 4z"/>
<path d="M5586 4494 c-9 -23 -8 -24 17 -23 12 0 16 3 9 6 -6 2 -10 9 -7 13 3
5 1 11 -4 14 -5 3 -12 -1 -15 -10z"/>
<path d="M5877 4504 c-10 -11 3 -24 24 -24 21 0 25 15 7 26 -7 4 -8 3 -4 -4 4
-7 1 -12 -9 -12 -9 0 -13 5 -10 10 7 11 2 13 -8 4z"/>
<path d="M4179 4498 c-6 -22 -5 -39 3 -45 7 -4 8 -1 3 7 -6 10 -3 12 11 7 18
-7 18 -6 1 7 -14 10 -15 15 -5 19 10 4 10 6 1 6 -7 1 -13 0 -14 -1z"/>
<path d="M4218 4493 c6 -2 9 -10 6 -15 -4 -7 -2 -8 4 -4 18 11 14 26 -5 25
-11 0 -13 -3 -5 -6z"/>
<path d="M4405 4489 c-4 -6 -5 -12 -2 -15 2 -3 7 2 10 11 7 17 1 20 -8 4z"/>
<path d="M4439 4492 c11 -8 11 -10 0 -14 -8 -3 0 -5 18 -4 35 1 32 10 -7 21
-17 4 -21 3 -11 -3z"/>
<path d="M5480 4489 c0 -5 5 -7 10 -4 6 3 10 8 10 11 0 2 -4 4 -10 4 -5 0 -10
-5 -10 -11z"/>
<path d="M5759 4493 c-1 -5 -1 -11 0 -15 0 -5 -3 -8 -9 -8 -5 0 -10 5 -10 10
0 6 -4 10 -8 10 -5 0 -9 -7 -9 -15 0 -9 10 -15 23 -15 17 0 22 5 21 20 -1 20
-6 27 -8 13z"/>
<path d="M5782 4480 c0 -14 2 -19 5 -12 2 6 2 18 0 25 -3 6 -5 1 -5 -13z"/>
<path d="M5950 4490 c0 -5 5 -10 10 -10 6 0 10 5 10 10 0 6 -4 10 -10 10 -5 0
-10 -4 -10 -10z"/>
<path d="M4355 4479 c-4 -6 -5 -12 -2 -15 2 -3 7 2 10 11 7 17 1 20 -8 4z"/>
<path d="M5801 4478 c-1 -10 6 -18 14 -18 8 0 15 5 15 11 0 5 -4 8 -9 5 -5 -4
-12 0 -14 6 -3 8 -6 6 -6 -4z"/>
<path d="M6000 4477 c0 -8 7 -14 15 -14 11 0 12 4 4 14 -6 7 -13 13 -15 13 -2
0 -4 -6 -4 -13z"/>
<path d="M5860 4459 c0 -5 5 -7 10 -4 6 3 10 8 10 11 0 2 -4 4 -10 4 -5 0 -10
-5 -10 -11z"/>
<path d="M6088 4463 c7 -3 16 -2 19 1 4 3 -2 6 -13 5 -11 0 -14 -3 -6 -6z"/>
<path d="M4286 4447 c-16 -12 -16 -14 -3 -14 9 0 18 6 21 14 3 7 4 13 3 13 -2
0 -11 -6 -21 -13z"/>
<path d="M4342 4430 c0 -14 2 -19 5 -12 2 6 2 18 0 25 -3 6 -5 1 -5 -13z"/>
<path d="M4248 4413 c7 -3 16 -2 19 1 4 3 -2 6 -13 5 -11 0 -14 -3 -6 -6z"/>
<path d="M4780 7022 c0 -29 7 -45 30 -67 62 -59 61 -50 57 -705 -2 -327 -6
-604 -8 -616 -4 -20 28 -51 187 -179 23 -18 42 -20 207 -21 344 -3 488 22 618
109 68 45 88 67 132 140 43 71 62 163 54 263 -12 167 -109 280 -286 334 l-55
17 62 28 c69 31 144 103 169 162 25 60 34 155 23 234 -23 161 -96 246 -264
307 l-71 26 -427 4 -428 3 0 -39z m722 -210 c63 -39 89 -131 74 -256 -15 -113
-84 -166 -218 -166 l-78 0 0 226 0 226 93 -4 c74 -3 100 -8 129 -26z m33 -651
c28 -13 53 -34 72 -62 25 -38 28 -52 31 -144 5 -130 -13 -200 -63 -243 -45
-40 -90 -52 -202 -52 l-93 0 0 267 0 266 106 -6 c71 -5 120 -13 149 -26z"/>
<path d="M6140 7025 c0 -30 8 -43 45 -77 27 -25 49 -55 55 -77 11 -40 14
-1167 3 -1222 -4 -22 -24 -51 -55 -81 -41 -40 -48 -52 -48 -86 0 -23 5 -42 13
-45 7 -3 157 -4 332 -3 l320 1 0 45 c0 44 -1 46 -49 70 -82 42 -86 57 -86 313
l0 218 46 -3 46 -3 107 -235 c59 -129 126 -274 148 -322 l41 -87 229 0 c125 0
236 2 246 5 12 4 17 16 17 44 0 41 -11 56 -62 88 -18 12 -43 34 -56 51 -25 34
-285 521 -280 525 2 1 26 17 55 35 108 68 174 175 194 318 36 253 -85 449
-329 531 l-77 27 -427 3 -428 3 0 -36z m690 -196 c67 -14 132 -74 152 -139 17
-57 16 -223 -1 -273 -32 -94 -102 -136 -228 -137 l-83 0 0 280 0 280 55 0 c29
0 77 -5 105 -11z"/>
<path d="M7620 7029 c0 -24 12 -42 54 -83 40 -38 57 -62 63 -91 10 -52 11
-1161 0 -1200 -5 -16 -33 -53 -63 -82 -44 -43 -54 -59 -54 -87 0 -18 6 -39 13
-45 10 -7 114 -10 343 -8 l329 2 3 41 c3 44 -4 54 -60 84 -69 36 -73 51 -76
261 l-3 189 43 55 c33 42 45 52 54 42 13 -15 255 -410 278 -454 23 -47 20 -58
-24 -95 -38 -30 -41 -35 -38 -78 l3 -45 345 0 345 0 3 42 c3 41 2 43 -51 76
-89 57 -102 76 -392 569 -194 328 -195 331 -177 352 10 12 84 98 164 191 183
214 210 239 300 284 70 34 73 38 76 74 l3 37 -310 0 -311 0 0 -40 c0 -35 5
-42 44 -70 77 -52 72 -78 -38 -214 -109 -136 -307 -371 -314 -374 -4 -1 -5
109 -2 245 6 284 7 289 90 349 43 31 50 41 50 70 l0 34 -345 0 -345 0 0 -31z"/>
<path d="M6213 5175 c-33 -14 -63 -59 -63 -95 0 -43 28 -78 77 -95 74 -25 98
-39 101 -58 10 -51 -62 -64 -101 -18 l-24 29 -31 -20 c-38 -24 -39 -28 -7 -62
61 -66 178 -61 234 10 45 58 8 143 -72 165 -61 16 -87 31 -87 49 0 41 54 54
85 20 22 -24 34 -25 63 -4 18 12 20 19 11 35 -27 52 -118 74 -186 44z"/>
<path d="M8933 5175 c-61 -26 -83 -116 -40 -159 13 -13 48 -31 78 -41 30 -10
60 -22 67 -28 18 -14 15 -45 -7 -57 -33 -17 -62 -11 -90 19 l-26 28 -33 -22
-33 -23 26 -30 c32 -38 83 -56 141 -49 85 9 133 69 113 140 -12 44 -26 55
-101 81 -68 24 -89 45 -69 70 19 22 61 20 87 -5 21 -19 24 -20 53 -5 30 16 30
17 15 40 -32 50 -116 69 -181 41z"/>
<path d="M6540 5000 l0 -180 35 0 34 0 3 115 3 116 75 -115 c74 -114 76 -116
113 -116 l37 0 0 180 0 180 -41 0 -40 0 6 -117 c5 -98 3 -115 -7 -100 -7 10
-42 63 -76 118 -63 98 -64 99 -103 99 l-39 0 0 -180z"/>
<path d="M6988 5000 l3 -180 114 0 115 0 0 35 0 35 -81 0 -80 0 3 42 3 42 63
-3 62 -2 0 35 0 36 -66 0 -65 0 3 38 3 37 73 0 72 0 0 33 0 32 -112 0 -113 0
3 -180z"/>
<path d="M7433 5163 c-3 -10 -24 -63 -46 -118 -21 -55 -50 -128 -63 -162 l-23
-63 39 0 c37 0 40 2 51 40 l12 40 68 0 68 0 12 -40 c12 -38 14 -40 54 -40 l42
0 -48 138 c-26 75 -54 155 -62 177 -13 37 -17 40 -56 43 -32 3 -43 -1 -48 -15z
m73 -138 l20 -65 -49 0 c-35 0 -48 4 -44 13 2 6 13 36 23 65 10 28 21 52 24
52 3 0 14 -30 26 -65z"/>
<path d="M7750 5000 l0 -180 40 0 40 0 0 53 c1 37 6 59 21 76 11 13 21 22 23
20 1 -2 23 -37 47 -76 l44 -73 48 0 c36 0 46 3 41 13 -4 6 -36 53 -70 103
l-63 91 65 77 65 76 -49 0 -49 0 -63 -80 c-35 -44 -63 -80 -64 -80 -1 0 0 36
2 80 l4 80 -41 0 -41 0 0 -180z"/>
<path d="M8160 5000 l0 -180 115 0 115 0 0 35 0 35 -75 0 -75 0 0 43 0 43 65
-4 65 -4 0 36 0 36 -65 0 -65 0 0 38 0 38 73 0 72 -1 3 33 3 32 -115 0 -116 0
0 -180z"/>
<path d="M8500 5000 l0 -180 40 0 40 0 0 60 c0 56 2 60 23 60 16 -1 32 -17 59
-60 37 -59 38 -60 83 -60 l46 0 -37 58 c-20 31 -40 61 -45 66 -5 6 4 20 22 35
24 20 32 37 36 72 11 94 -37 129 -174 129 l-93 0 0 -180z m178 98 c35 -35 -5
-88 -65 -88 -33 0 -33 0 -33 50 l0 50 43 0 c24 0 48 -5 55 -12z"/>
</g>
</svg>
